# Blender 3.6.0
# www.blender.org
mtllib rainbow.mtl
o Cube
v 0.707344 0.140807 -0.707344
v 0.707344 -0.140807 -0.707344
v 0.707344 0.140807 0.707344
v 0.707344 -0.140807 0.707344
v -0.707344 0.140807 -0.707344
v -0.707344 -0.140807 -0.707344
v -0.707344 0.140807 0.707344
v -0.707344 -0.140807 0.707344
v 0.471563 -0.140807 -0.707344
v 0.235781 -0.140807 -0.707344
v -0.000000 -0.140807 -0.707344
v -0.235781 -0.140807 -0.707344
v -0.471563 -0.140807 -0.707344
v 0.471563 0.140807 0.707344
v 0.235781 0.140807 0.707344
v -0.000000 0.140807 0.707344
v -0.235781 0.140807 0.707344
v -0.471563 0.140807 0.707344
v -0.471563 -0.140807 0.707344
v -0.235781 -0.140807 0.707344
v 0.000000 -0.140807 0.707344
v 0.235781 -0.140807 0.707344
v 0.471563 -0.140807 0.707344
v -0.471563 0.140807 -0.707344
v -0.235781 0.140807 -0.707344
v 0.000000 0.140807 -0.707344
v 0.235781 0.140807 -0.707344
v 0.471563 0.140807 -0.707344
vn -0.0000 1.0000 -0.0000
vn -0.0000 -0.0000 1.0000
vn -1.0000 -0.0000 -0.0000
vn -0.0000 -1.0000 -0.0000
vn 1.0000 -0.0000 -0.0000
vn -0.0000 -0.0000 -1.0000
vt 0.875000 0.500000
vt 0.833333 0.750000
vt 0.833333 0.500000
vt 0.625000 0.958333
vt 0.375000 1.000000
vt 0.375000 0.958333
vt 0.625000 0.000000
vt 0.375000 0.250000
vt 0.375000 0.000000
vt 0.375000 0.500000
vt 0.333333 0.750000
vt 0.333333 0.500000
vt 0.625000 0.500000
vt 0.375000 0.750000
vt 0.625000 0.458333
vt 0.375000 0.458333
vt 0.625000 0.250000
vt 0.375000 0.291667
vt 0.625000 0.291667
vt 0.375000 0.333333
vt 0.625000 0.333333
vt 0.375000 0.375000
vt 0.625000 0.375000
vt 0.375000 0.416667
vt 0.625000 0.416667
vt 0.166667 0.500000
vt 0.125000 0.750000
vt 0.125000 0.500000
vt 0.208333 0.500000
vt 0.166667 0.750000
vt 0.250000 0.500000
vt 0.208333 0.750000
vt 0.291667 0.500000
vt 0.250000 0.750000
vt 0.291667 0.750000
vt 0.625000 0.750000
vt 0.375000 0.791667
vt 0.625000 0.791667
vt 0.375000 0.833333
vt 0.625000 0.833333
vt 0.375000 0.875000
vt 0.625000 0.875000
vt 0.375000 0.916667
vt 0.625000 0.916667
vt 0.666667 0.500000
vt 0.708333 0.500000
vt 0.666667 0.750000
vt 0.750000 0.500000
vt 0.708333 0.750000
vt 0.791667 0.500000
vt 0.750000 0.750000
vt 0.791667 0.750000
vt 0.875000 0.750000
vt 0.625000 1.000000
s 0
usemtl Material
f 2/10/4 23/11/4 9/12/4
f 9/12/4 22/35/4 10/33/4
f 2/10/4 4/14/4 23/11/4
f 9/12/4 23/11/4 22/35/4
usemtl Material.001
f 1/13/5 4/14/5 2/10/5
f 28/15/6 2/10/6 9/16/6
f 3/36/2 23/37/2 4/14/2
f 28/45/1 3/36/1 1/13/1
f 1/13/5 3/36/5 4/14/5
f 28/15/6 1/13/6 2/10/6
f 3/36/2 14/38/2 23/37/2
f 28/45/1 14/47/1 3/36/1
usemtl Material.002
f 27/25/6 9/16/6 10/24/6
f 14/38/2 22/39/2 23/37/2
f 27/46/1 14/47/1 28/45/1
f 27/25/6 28/15/6 9/16/6
f 14/38/2 15/40/2 22/39/2
f 27/46/1 15/49/1 14/47/1
usemtl Material.003
f 26/23/6 10/24/6 11/22/6
f 10/33/4 21/34/4 11/31/4
f 15/40/2 21/41/2 22/39/2
f 26/48/1 15/49/1 27/46/1
f 26/23/6 27/25/6 10/24/6
f 10/33/4 22/35/4 21/34/4
f 15/40/2 16/42/2 21/41/2
f 26/48/1 16/51/1 15/49/1
usemtl Material.004
f 25/21/6 11/22/6 12/20/6
f 11/31/4 20/32/4 12/29/4
f 16/42/2 20/43/2 21/41/2
f 25/50/1 16/51/1 26/48/1
f 25/21/6 26/23/6 11/22/6
f 11/31/4 21/34/4 20/32/4
f 16/42/2 17/44/2 20/43/2
f 25/50/1 17/52/1 16/51/1
usemtl Material.005
f 24/19/6 12/20/6 13/18/6
f 12/29/4 19/30/4 13/26/4
f 17/44/2 19/6/2 20/43/2
f 24/3/1 17/52/1 25/50/1
f 24/19/6 25/21/6 12/20/6
f 12/29/4 20/32/4 19/30/4
f 17/44/2 18/4/2 19/6/2
f 24/3/1 18/2/1 17/52/1
usemtl Material.006
f 5/1/1 18/2/1 24/3/1
f 18/4/2 8/5/2 19/6/2
f 7/7/3 6/8/3 8/9/3
f 5/17/6 13/18/6 6/8/6
f 13/26/4 8/27/4 6/28/4
f 5/1/1 7/53/1 18/2/1
f 18/4/2 7/54/2 8/5/2
f 7/7/3 5/17/3 6/8/3
f 5/17/6 24/19/6 13/18/6
f 13/26/4 19/30/4 8/27/4
