<?xml version="1.0" encoding="UTF-8" standalone="no"?>
<!-- Created with Inkscape (http://www.inkscape.org/) -->

<svg
   width="477.92963mm"
   height="339.46042mm"
   viewBox="0 0 477.92962 339.46042"
   version="1.1"
   id="svg1"
   xml:space="preserve"
   inkscape:version="1.3 (0e150ed6c4, 2023-07-21)"
   sodipodi:docname="cadence.svg"
   xmlns:inkscape="http://www.inkscape.org/namespaces/inkscape"
   xmlns:sodipodi="http://sodipodi.sourceforge.net/DTD/sodipodi-0.dtd"
   xmlns="http://www.w3.org/2000/svg"
   xmlns:svg="http://www.w3.org/2000/svg"><sodipodi:namedview
     id="namedview1"
     pagecolor="#505050"
     bordercolor="#ffffff"
     borderopacity="1"
     inkscape:showpageshadow="0"
     inkscape:pageopacity="0"
     inkscape:pagecheckerboard="1"
     inkscape:deskcolor="#505050"
     inkscape:document-units="mm"
     inkscape:zoom="0.12425333"
     inkscape:cx="-112.67303"
     inkscape:cy="1195.139"
     inkscape:window-width="1920"
     inkscape:window-height="995"
     inkscape:window-x="0"
     inkscape:window-y="0"
     inkscape:window-maximized="1"
     inkscape:current-layer="layer1" /><defs
     id="defs1" /><g
     inkscape:label="Layer 1"
     inkscape:groupmode="layer"
     id="layer1"
     transform="matrix(6.2704659,0,0,6.2704759,-614.45708,-306.55317)"><g
       id="g1"
       transform="translate(31.06944,-72.559519)"><path
         d="m 149.53351,60.692419 c -8.7e-4,-0.03253 -0.002,-0.02138 -0.003,-0.05581 -0.0115,-0.483393 -0.0186,-1.150182 -0.0186,-1.883606 0,-0.690767 0.007,-1.299057 0.0176,-1.774052 -0.005,-0.19996 -0.005,-0.808219 -0.0114,-0.808219 -0.0737,0 -1.56884,0.654766 -3.04323,1.316715 -1.47439,0.661949 -2.92832,1.330924 -2.91972,1.360124 0.006,0.02053 0.336,0.174089 0.86248,0.404626 0.52648,0.230538 1.24951,0.538398 2.04225,0.867648 1.58548,0.658489 2.93025,1.201127 2.98845,1.206127 0.0206,0.0018 0.0379,-0.03224 0.0517,-0.115755 0.0138,-0.08352 0.0245,-0.216187 0.0325,-0.412378 8.4e-4,-0.02023 2.6e-4,-0.08383 10e-4,-0.10542 z"
         style="display:inline;fill:#fefefe"
         id="path16"
         transform="translate(-31.06944,72.559519)"
         inkscape:label="path8" /><path
         style="display:inline;fill:#8ed5e8"
         d="m 104.9892,167.60645 c -0.024,-0.0388 0.0102,-0.0705 0.076,-0.0705 0.0657,0 0.0999,0.0317 0.0759,0.0705 -0.024,0.0388 -0.0582,0.0706 -0.0759,0.0706 -0.0178,0 -0.052,-0.0317 -0.076,-0.0706 z m -0.52477,-0.45861 -0.16128,-0.1905 0.1905,0.16129 c 0.17902,0.15157 0.22904,0.21971 0.16128,0.21971 -0.0161,0 -0.10179,-0.0857 -0.1905,-0.1905 z m 1.19338,-0.0635 c 0.0843,-0.0931 0.1723,-0.16933 0.19558,-0.16933 0.0233,0 -0.0266,0.0762 -0.11091,0.16933 -0.0843,0.0931 -0.1723,0.16934 -0.19558,0.16934 -0.0233,0 0.0266,-0.0762 0.11091,-0.16934 z m -1.87071,-0.52916 -0.16129,-0.1905 0.1905,0.16129 c 0.17902,0.15157 0.22905,0.21971 0.16129,0.21971 -0.0161,0 -0.10179,-0.0857 -0.1905,-0.1905 z m 2.54805,-0.0635 c 0.0843,-0.0931 0.17229,-0.16934 0.19557,-0.16934 0.0233,0 -0.0266,0.0762 -0.11091,0.16934 -0.0843,0.0931 -0.17229,0.16933 -0.19558,0.16933 -0.0233,0 0.0266,-0.0762 0.11092,-0.16933 z m -3.14072,-0.4445 -0.16128,-0.1905 0.1905,0.16129 c 0.10477,0.0887 0.1905,0.17443 0.1905,0.1905 0,0.0677 -0.0681,0.0177 -0.21972,-0.16129 z m 3.81805,-0.14817 c 0.0843,-0.0931 0.17229,-0.16933 0.19558,-0.16933 0.0233,0 -0.0266,0.0762 -0.11091,0.16933 -0.0843,0.0931 -0.1723,0.16933 -0.19558,0.16933 -0.0233,0 0.0266,-0.0762 0.11091,-0.16933 z m -4.49538,-0.4445 -0.16129,-0.1905 0.1905,0.16129 c 0.17902,0.15157 0.22905,0.21971 0.16129,0.21971 -0.0161,0 -0.10179,-0.0857 -0.1905,-0.1905 z m 5.17271,-0.14817 c 0.0843,-0.0931 0.1723,-0.16933 0.19558,-0.16933 0.0233,0 -0.0266,0.0762 -0.11091,0.16933 -0.0843,0.0931 -0.1723,0.16934 -0.19558,0.16934 -0.0233,0 0.0266,-0.0762 0.11091,-0.16934 z m -5.81046,-0.40216 c -0.10532,-0.13429 -0.10232,-0.13728 0.032,-0.032 0.14104,0.11061 0.18589,0.18013 0.1162,0.18013 -0.0176,0 -0.0843,-0.0667 -0.14816,-0.14816 z m 6.4878,-0.1905 c 0.0843,-0.0931 0.17229,-0.16934 0.19557,-0.16934 0.0233,0 -0.0266,0.0762 -0.11091,0.16934 -0.0843,0.0931 -0.17229,0.16933 -0.19558,0.16933 -0.0233,0 0.0266,-0.0762 0.11092,-0.16933 z m -7.12005,-0.35984 -0.16129,-0.1905 0.1905,0.16129 c 0.10478,0.0887 0.1905,0.17444 0.1905,0.1905 0,0.0678 -0.0681,0.0177 -0.21971,-0.16129 z m 7.79738,-0.23283 c 0.0843,-0.0931 0.17229,-0.16933 0.19558,-0.16933 0.0233,0 -0.0266,0.0762 -0.11091,0.16933 -0.0843,0.0931 -0.1723,0.16933 -0.19558,0.16933 -0.0233,0 0.0266,-0.0762 0.11091,-0.16933 z m -8.43513,-0.3175 c -0.10532,-0.13429 -0.10232,-0.13728 0.032,-0.032 0.14104,0.11061 0.18589,0.18014 0.1162,0.18014 -0.0176,0 -0.0842,-0.0667 -0.14816,-0.14817 z m 9.11246,-0.27517 c 0.0843,-0.0931 0.1723,-0.16933 0.19558,-0.16933 0.0233,0 -0.0266,0.0762 -0.11091,0.16933 -0.0843,0.0931 -0.1723,0.16934 -0.19558,0.16934 -0.0233,0 0.0266,-0.0762 0.11091,-0.16934 z m -9.744709,-0.27516 -0.161289,-0.1905 0.190498,0.16129 c 0.17903,0.15157 0.22905,0.21971 0.16129,0.21971 -0.0161,0 -0.10179,-0.0857 -0.190499,-0.1905 z m 10.422049,-0.3175 c 0.0843,-0.0931 0.17229,-0.16934 0.19557,-0.16934 0.0233,0 -0.0266,0.0762 -0.11091,0.16934 -0.0843,0.0931 -0.17229,0.16933 -0.19558,0.16933 -0.0233,0 0.0266,-0.0762 0.11092,-0.16933 z m -11.099382,-0.27517 -0.161289,-0.1905 0.1905,0.16129 c 0.104775,0.0887 0.1905,0.17443 0.1905,0.1905 0,0.0678 -0.06814,0.0177 -0.219711,-0.16129 z m 11.776712,-0.3175 c 0.0843,-0.0931 0.17229,-0.16933 0.19558,-0.16933 0.0233,0 -0.0266,0.0762 -0.11092,0.16933 -0.0843,0.0931 -0.17229,0.16933 -0.19557,0.16933 -0.0233,0 0.0266,-0.0762 0.11091,-0.16933 z m -12.369379,-0.1905 -0.161289,-0.1905 0.1905,0.16129 c 0.104775,0.0887 0.1905,0.17443 0.1905,0.1905 0,0.0678 -0.06814,0.0177 -0.219711,-0.16129 z m 13.046709,-0.40217 c 0.0843,-0.0931 0.1723,-0.16933 0.19558,-0.16933 0.0233,0 -0.0266,0.0762 -0.11091,0.16933 -0.0843,0.0931 -0.1723,0.16934 -0.19558,0.16934 -0.0233,0 0.0266,-0.0762 0.11091,-0.16934 z m -13.724042,-0.1905 -0.161289,-0.1905 0.1905,0.16129 c 0.179023,0.15157 0.229044,0.21971 0.161289,0.21971 -0.01607,0 -0.101791,-0.0857 -0.1905,-0.1905 z m 14.401372,-0.40216 c 0.0843,-0.0931 0.1723,-0.16934 0.19558,-0.16934 0.0233,0 -0.0266,0.0762 -0.11091,0.16934 -0.0843,0.0931 -0.17229,0.16933 -0.19558,0.16933 -0.0233,0 0.0266,-0.0762 0.11091,-0.16933 z m -14.994039,-0.10584 -0.161289,-0.1905 0.1905,0.16129 c 0.179023,0.15157 0.229044,0.21971 0.161289,0.21971 -0.01607,0 -0.101791,-0.0857 -0.1905,-0.1905 z m 15.671379,-0.48683 c 0.0843,-0.0931 0.17229,-0.16933 0.19558,-0.16933 0.0233,0 -0.0266,0.0762 -0.11092,0.16933 -0.0843,0.0931 -0.17229,0.16933 -0.19557,0.16933 -0.0233,0 0.0266,-0.0762 0.11091,-0.16933 z m -16.348712,-0.10583 -0.161289,-0.1905 0.1905,0.16129 c 0.104775,0.0887 0.1905,0.17443 0.1905,0.1905 0,0.0677 -0.06814,0.0177 -0.219711,-0.16129 z m -0.592667,-0.508 -0.161289,-0.1905 0.1905,0.16129 c 0.104775,0.0887 0.1905,0.17443 0.1905,0.1905 0,0.0677 -0.06814,0.0177 -0.219711,-0.16129 z m 17.618709,0.0212 c 0.0843,-0.0931 0.1723,-0.16933 0.19558,-0.16933 0.0233,0 -0.0266,0.0762 -0.11091,0.16933 -0.0843,0.0931 -0.1723,0.16934 -0.19558,0.16934 -0.0233,0 0.0266,-0.0762 0.11091,-0.16934 z m -18.296042,-0.61383 -0.161289,-0.1905 0.1905,0.16129 c 0.104775,0.0887 0.1905,0.17443 0.1905,0.1905 0,0.0677 -0.06814,0.0177 -0.219711,-0.16129 z m 18.973372,0.0212 c 0.0843,-0.0931 0.1723,-0.16934 0.19558,-0.16934 0.0233,0 -0.0266,0.0762 -0.11091,0.16934 -0.0843,0.0931 -0.17229,0.16933 -0.19558,0.16933 -0.0233,0 0.0266,-0.0762 0.11091,-0.16933 z m -19.566039,-0.52917 -0.161289,-0.1905 0.1905,0.16129 c 0.104775,0.0887 0.1905,0.17443 0.1905,0.1905 0,0.0678 -0.06814,0.0177 -0.219711,-0.16129 z m 20.243379,-0.0635 c 0.0843,-0.0931 0.17229,-0.16933 0.19558,-0.16933 0.0233,0 -0.0266,0.0762 -0.11092,0.16933 -0.0843,0.0931 -0.17229,0.16933 -0.19557,0.16933 -0.0233,0 0.0266,-0.0762 0.11091,-0.16933 z m -20.920712,-0.52917 -0.161289,-0.1905 0.1905,0.16129 c 0.179023,0.15158 0.229044,0.21971 0.161289,0.21971 -0.01607,0 -0.101791,-0.0857 -0.1905,-0.1905 z m 21.598042,-0.0635 c 0.0843,-0.0931 0.1723,-0.16933 0.19558,-0.16933 0.0233,0 -0.0266,0.0762 -0.11091,0.16933 -0.0843,0.0931 -0.1723,0.16934 -0.19558,0.16934 -0.0233,0 0.0266,-0.0762 0.11091,-0.16934 z m -22.235797,-0.48683 c -0.105315,-0.13429 -0.10232,-0.13728 0.03197,-0.032 0.08149,0.0639 0.148167,0.13059 0.148167,0.14817 0,0.0697 -0.06953,0.0248 -0.180133,-0.1162 z m 22.913127,-0.10583 c 0.0843,-0.0931 0.1723,-0.16934 0.19558,-0.16934 0.0233,0 -0.0266,0.0762 -0.11091,0.16934 -0.0843,0.0931 -0.17229,0.16933 -0.19558,0.16933 -0.0233,0 0.0266,-0.0762 0.11091,-0.16933 z m -23.545372,-0.4445 -0.161289,-0.1905 0.1905,0.16129 c 0.179023,0.15157 0.229044,0.21971 0.161289,0.21971 -0.01607,0 -0.101791,-0.0857 -0.1905,-0.1905 z m 24.222712,-0.14817 c 0.0843,-0.0931 0.17229,-0.16933 0.19558,-0.16933 0.0233,0 -0.0266,0.0762 -0.11092,0.16933 -0.0843,0.0931 -0.17229,0.16933 -0.19557,0.16933 -0.0233,0 0.0266,-0.0762 0.11091,-0.16933 z M 90.121479,138.71109 c -1.373716,-1.02314 -2.548536,-1.9108 -2.610711,-1.97257 -0.09407,-0.0935 0.229196,-0.32661 1.925649,-1.38888 1.879359,-1.1768 2.042106,-1.26202 2.082359,-1.09043 0.02402,0.10237 0.290441,1.48154 0.592054,3.0648 0.301614,1.58327 0.568673,2.96439 0.593465,3.06917 0.06944,0.29345 0.07093,0.29442 -2.582816,-1.68209 z m 27.211361,1.72442 c 0.0246,-0.0815 0.29572,-1.46261 0.60243,-3.06916 0.30672,-1.60655 0.58485,-3.00804 0.61808,-3.11442 0.0566,-0.18116 4.06396,2.14489 4.07685,2.36638 0.003,0.0588 -5.21346,3.96537 -5.29535,3.96537 -0.0257,0 -0.0266,-0.0667 -0.002,-0.14817 z m -34.709396,-4.67783 c 0,-1.32715 0.0117,-1.87008 0.02601,-1.2065 0.01431,0.66357 0.01431,1.74942 0,2.413 -0.0143,0.66357 -0.02601,0.12065 -0.02601,-1.2065 z m 44.783386,1.35467 c 0,-0.53552 0.0138,-0.7546 0.0306,-0.48684 0.0168,0.26776 0.0168,0.70591 0,0.97367 -0.0168,0.26776 -0.0306,0.0487 -0.0306,-0.48683 z m -8.96435,-5.79967 c 0,-1.46685 0.0286,-2.667 0.0635,-2.667 0.0349,0 0.0635,1.20015 0.0635,2.667 0,1.46685 -0.0286,2.667 -0.0635,2.667 -0.0349,0 -0.0635,-1.20015 -0.0635,-2.667 z m -35.263667,-2.19097 c 0,-0.0176 0.06667,-0.0842 0.148166,-0.14816 0.134286,-0.10532 0.137281,-0.10232 0.03197,0.032 -0.110606,0.14104 -0.180133,0.18589 -0.180133,0.1162 z m 43.507867,-0.1162 c -0.10532,-0.13428 -0.10232,-0.13728 0.032,-0.032 0.14104,0.1106 0.18589,0.18013 0.1162,0.18013 -0.0176,0 -0.0842,-0.0667 -0.14816,-0.14817 z m -36.808694,-3.09033 c -0.892694,-1.45521 -1.657397,-2.70053 -1.699341,-2.76739 -0.0651,-0.10376 -0.09889,-0.10444 -0.23088,-0.005 -0.138884,0.10502 -0.141695,0.10358 -0.02762,-0.0142 0.09146,-0.0944 1.453721,-0.33744 4.868333,-0.86843 2.607733,-0.40551 4.794129,-0.75478 4.858657,-0.77615 0.09999,-0.0331 0.09999,-0.0147 0,0.12423 -0.213909,0.29733 -6.043016,6.94102 -6.09503,6.94678 -0.02807,0.003 -0.781426,-1.18498 -1.67412,-2.64019 z m 25.527284,-0.9208 c -2.56019,-2.9255 -3.07449,-3.55357 -2.87652,-3.51286 0.13258,0.0273 2.31751,0.37666 4.85539,0.77642 4.077,0.6422 4.63406,0.74797 4.78367,0.90831 l 0.16933,0.18148 -0.19101,-0.15862 c -0.10507,-0.0872 -0.2053,-0.14297 -0.22276,-0.12386 -0.0175,0.0191 -0.76527,1.23491 -1.66181,2.70176 -0.89655,1.46685 -1.65452,2.69464 -1.68439,2.72841 -0.0299,0.0338 -1.45722,-1.54169 -3.1719,-3.50104 z m -31.295124,2.942 c 0,-0.0176 0.06668,-0.0843 0.148167,-0.14817 0.134286,-0.10531 0.13728,-0.10232 0.03197,0.032 -0.110606,0.14103 -0.180133,0.18588 -0.180133,0.1162 z m 41.052534,-0.8782 c -0.10532,-0.13429 -0.10232,-0.13728 0.032,-0.032 0.14104,0.11061 0.18589,0.18014 0.1162,0.18014 -0.0176,0 -0.0842,-0.0667 -0.14816,-0.14817 z m -0.59267,-0.762 c -0.10531,-0.13429 -0.10232,-0.13728 0.032,-0.032 0.0815,0.0639 0.14816,0.13059 0.14816,0.14817 0,0.0697 -0.0695,0.0248 -0.18013,-0.1162 z m -38.935864,-0.30713 c 0,-0.0176 0.06668,-0.0843 0.148167,-0.14817 0.134286,-0.10531 0.13728,-0.10232 0.03197,0.032 -0.110606,0.14103 -0.180133,0.18588 -0.180133,0.1162 z m 38.004534,-0.8782 c -0.10532,-0.13429 -0.10232,-0.13728 0.032,-0.032 0.0815,0.0639 0.14817,0.13058 0.14817,0.14817 0,0.0697 -0.0695,0.0248 -0.18013,-0.1162 z m -37.073201,-0.30714 c 0,-0.0176 0.06668,-0.0842 0.148167,-0.14816 0.134286,-0.10532 0.137281,-0.10232 0.03197,0.032 -0.110606,0.14104 -0.180133,0.18589 -0.180133,0.1162 z m 0.931334,-1.18533 c 0,-0.0176 0.06668,-0.0843 0.148166,-0.14817 0.134286,-0.10531 0.137281,-0.10232 0.03197,0.032 -0.110606,0.14103 -0.180133,0.18588 -0.180133,0.1162 z"
         id="path7" /><path
         style="display:inline;fill:#64c9e4"
         d="m 104.16535,166.85151 c -0.10532,-0.13429 -0.10232,-0.13728 0.032,-0.032 0.0815,0.0639 0.14817,0.13059 0.14817,0.14817 0,0.0697 -0.0695,0.0248 -0.18013,-0.1162 z m 1.70413,0.0315 c 0,-0.0176 0.0667,-0.0842 0.14817,-0.14816 0.13428,-0.10532 0.13728,-0.10232 0.032,0.032 -0.1106,0.14104 -0.18013,0.18589 -0.18013,0.1162 z m -2.97413,-1.1322 c -0.10532,-0.13428 -0.10232,-0.13728 0.032,-0.032 0.0815,0.0639 0.14817,0.13058 0.14817,0.14816 0,0.0697 -0.0695,0.0248 -0.18013,-0.1162 z m 5.00613,-0.6458 c 0,-0.0176 0.0667,-0.0842 0.14817,-0.14816 0.13428,-0.10532 0.13728,-0.10232 0.032,0.032 -0.1106,0.14104 -0.18013,0.18589 -0.18013,0.1162 z m -6.27613,-0.45486 c -0.10532,-0.13429 -0.10232,-0.13728 0.032,-0.032 0.0815,0.0639 0.14817,0.13059 0.14817,0.14817 0,0.0697 -0.0695,0.0248 -0.18013,-0.1162 z m -1.27,-1.10067 c -0.10532,-0.13429 -0.10232,-0.13728 0.032,-0.032 0.0815,0.0639 0.14817,0.13059 0.14817,0.14817 0,0.0697 -0.0695,0.0248 -0.18013,-0.1162 z m -4.487337,-3.89467 c -0.105315,-0.13428 -0.10232,-0.13728 0.03197,-0.032 0.08149,0.0639 0.148167,0.13058 0.148167,0.14816 0,0.0697 -0.06953,0.0248 -0.180133,-0.1162 z m -1.27,-1.10066 c -0.105315,-0.13429 -0.10232,-0.13728 0.03197,-0.032 0.141033,0.11061 0.185884,0.18013 0.1162,0.18013 -0.01758,0 -0.08426,-0.0667 -0.148166,-0.14816 z m 6.064967,-0.38132 c -0.11557,-0.6432 -1.132604,-7.9763 -1.10945,-7.99946 0.03411,-0.0341 5.42071,4.27691 5.44863,4.36066 0.012,0.0361 -0.94824,0.93147 -2.13395,1.98967 l -2.15584,1.92398 z m 6.56117,-1.6801 c -1.14089,-1.02561 -2.07434,-1.89945 -2.07434,-1.94186 0,-0.11452 5.3249,-4.4272 5.35495,-4.33703 0.0142,0.0425 -0.22289,1.84184 -0.52677,3.99862 -0.30388,2.15678 -0.55251,3.97311 -0.55251,4.0363 0,0.21106 -0.11687,0.11783 -2.20133,-1.75603 z m -13.896137,0.96075 c -0.105315,-0.13429 -0.10232,-0.13728 0.03197,-0.032 0.141033,0.11061 0.185884,0.18014 0.1162,0.18014 -0.01758,0 -0.08426,-0.0667 -0.148166,-0.14817 z m 2.74161,-8.72784 -3.23819,-1.32633 -3.1e-4,-3.29776 c -1.79e-4,-1.90429 0.03119,-3.26378 0.07423,-3.21733 0.124148,0.13396 6.529459,9.10508 6.529459,9.145 0,0.0714 -0.150688,0.0131 -3.365189,-1.30358 z m 14.554707,1.27067 c 0.0159,-0.0405 1.49566,-2.12475 3.28848,-4.63176 l 3.25967,-4.55819 0.0222,3.24889 c 0.0122,1.78689 -0.007,3.27732 -0.0423,3.31207 -0.0355,0.0347 -1.34087,0.58362 -2.90085,1.21973 -3.73631,1.52353 -3.66035,1.49402 -3.62715,1.40926 z m -18.227651,-9.56083 c -0.105314,-0.13428 -0.102319,-0.13728 0.03197,-0.032 0.141033,0.1106 0.185884,0.18013 0.1162,0.18013 -0.01758,0 -0.08426,-0.0667 -0.148167,-0.14817 z m 25.072131,0.1162 c 0,-0.0176 0.0667,-0.0843 0.14817,-0.14816 0.13428,-0.10532 0.13728,-0.10232 0.032,0.032 -0.1106,0.14104 -0.18013,0.18589 -0.18013,0.1162 z m -24.800647,-0.27142 c 0.0041,-0.0986 0.02412,-0.11869 0.05115,-0.0512 0.02446,0.0611 0.02145,0.13414 -0.0067,0.16227 -0.02813,0.0281 -0.04815,-0.0219 -0.04447,-0.11112 z m 24.637997,0 c 0.004,-0.0986 0.0241,-0.11869 0.0512,-0.0512 0.0245,0.0611 0.0214,0.13414 -0.007,0.16227 -0.0281,0.0281 -0.0481,-0.0219 -0.0445,-0.11112 z m -25.248147,-0.0988 c -0.105315,-0.13428 -0.10232,-0.13728 0.03197,-0.032 0.141033,0.1106 0.185884,0.18013 0.1162,0.18013 -0.01758,0 -0.08426,-0.0667 -0.148166,-0.14817 z m 25.749467,0.1162 c 0,-0.0176 0.0667,-0.0842 0.14816,-0.14816 0.13429,-0.10532 0.13729,-0.10232 0.032,0.032 -0.1106,0.14104 -0.18013,0.18589 -0.18013,0.1162 z m -26.088134,-0.3702 c -0.105314,-0.13428 -0.10232,-0.13728 0.03197,-0.032 0.141034,0.1106 0.185884,0.18013 0.116201,0.18013 -0.01758,0 -0.08426,-0.0667 -0.148167,-0.14817 z m 26.426794,0.1162 c 0,-0.0176 0.0667,-0.0842 0.14817,-0.14816 0.13429,-0.10532 0.13728,-0.10232 0.032,0.032 -0.11061,0.14104 -0.18014,0.18589 -0.18014,0.1162 z m -25.555959,-0.22203 c 0,-0.11642 0.01922,-0.16404 0.0427,-0.10583 0.02349,0.0582 0.02349,0.15345 0,0.21166 -0.02349,0.0582 -0.0427,0.0106 -0.0427,-0.10583 z m 24.800649,0.0353 c 0.004,-0.0986 0.0241,-0.1187 0.0512,-0.0512 0.0245,0.0611 0.0215,0.13415 -0.007,0.16228 -0.0281,0.0281 -0.0481,-0.0219 -0.0445,-0.11112 z m 1.09398,-0.0672 c 0,-0.0176 0.0667,-0.0843 0.14817,-0.14816 0.13428,-0.10532 0.13728,-0.10232 0.032,0.032 -0.1106,0.14104 -0.18013,0.18589 -0.18013,0.1162 z m -25.979296,-0.39136 c 0,-0.11642 0.01922,-0.16405 0.0427,-0.10584 0.02349,0.0582 0.02349,0.15346 0,0.21167 -0.02349,0.0582 -0.0427,0.0106 -0.0427,-0.10583 z m 24.969986,0.0353 c 0.004,-0.0986 0.0241,-0.11869 0.0512,-0.0511 0.0245,0.0611 0.0215,0.13414 -0.007,0.16228 -0.0281,0.0281 -0.0481,-0.0219 -0.0445,-0.11113 z m 1.34798,0.10209 c 0,-0.0176 0.0667,-0.0842 0.14816,-0.14816 0.13429,-0.10532 0.13729,-0.10232 0.032,0.032 -0.1106,0.14104 -0.18013,0.18589 -0.18013,0.1162 z m -28.035467,-0.28553 c -0.105315,-0.13429 -0.10232,-0.13728 0.03197,-0.032 0.141033,0.11061 0.185884,0.18014 0.1162,0.18014 -0.01758,0 -0.08426,-0.0667 -0.148166,-0.14817 z m 28.374127,0.0315 c 0,-0.0176 0.0667,-0.0842 0.14817,-0.14816 0.13429,-0.10532 0.13728,-0.10232 0.032,0.032 -0.11061,0.14104 -0.18014,0.18589 -0.18014,0.1162 z M 90.449346,138.9962 c -0.105314,-0.13429 -0.10232,-0.13728 0.03197,-0.032 0.141034,0.11061 0.185884,0.18014 0.116201,0.18014 -0.01758,0 -0.08426,-0.0667 -0.148167,-0.14817 z m 27.110814,0.0141 c 0.004,-0.0986 0.0241,-0.11869 0.0512,-0.0512 0.0244,0.0611 0.0214,0.13414 -0.007,0.16227 -0.0281,0.0281 -0.0481,-0.0219 -0.0445,-0.11112 z m -25.145997,-0.0847 c 0.0041,-0.0986 0.02412,-0.11869 0.05115,-0.0512 0.02446,0.0611 0.02145,0.13414 -0.0067,0.16228 -0.02813,0.0281 -0.04814,-0.0219 -0.04447,-0.11113 z m -2.303484,-0.18344 c -0.105314,-0.13429 -0.102319,-0.13728 0.03197,-0.032 0.141033,0.11061 0.185884,0.18014 0.1162,0.18014 -0.01758,0 -0.08426,-0.0667 -0.148167,-0.14817 z m 29.644131,0.1162 c 0,-0.0176 0.0667,-0.0843 0.14817,-0.14817 0.13428,-0.10531 0.13728,-0.10232 0.032,0.032 -0.1106,0.14103 -0.18013,0.18588 -0.18013,0.1162 z m -2.10998,-0.27142 c 0.004,-0.0986 0.0241,-0.1187 0.0512,-0.0512 0.0245,0.0611 0.0214,0.13415 -0.007,0.16228 -0.0281,0.0281 -0.0482,-0.0219 -0.0445,-0.11112 z m -27.872817,-0.0988 c -0.105315,-0.13429 -0.10232,-0.13728 0.03197,-0.032 0.08149,0.0639 0.148167,0.13059 0.148167,0.14817 0,0.0697 -0.06953,0.0248 -0.180133,-0.1162 z m 2.557484,0.0141 c 0.0041,-0.0986 0.02412,-0.11869 0.05115,-0.0511 0.02446,0.0611 0.02145,0.13414 -0.0067,0.16227 -0.02813,0.0281 -0.04815,-0.0219 -0.04447,-0.11112 z m 27.763983,0.10209 c 0,-0.0176 0.0667,-0.0843 0.14816,-0.14817 0.13429,-0.10531 0.13729,-0.10232 0.032,0.032 -0.11061,0.14103 -0.18013,0.18588 -0.18013,0.1162 z m -30.660134,-0.3702 c -0.105314,-0.13429 -0.10232,-0.13728 0.03197,-0.032 0.141033,0.11061 0.185883,0.18014 0.1162,0.18014 -0.01758,0 -0.08426,-0.0667 -0.148167,-0.14817 z m 30.998794,0.1162 c 0,-0.0176 0.0667,-0.0843 0.14817,-0.14817 0.13429,-0.10531 0.13728,-0.10232 0.032,0.032 -0.11061,0.14103 -0.18014,0.18588 -0.18014,0.1162 z m -2.69596,-0.22203 c 0,-0.11642 0.0192,-0.16405 0.0427,-0.10584 0.0235,0.0582 0.0235,0.15346 0,0.21167 -0.0235,0.0582 -0.0427,0.0106 -0.0427,-0.10583 z m -25.49135,-0.0494 c 0.0041,-0.0986 0.02413,-0.1187 0.05115,-0.0512 0.02446,0.0611 0.02145,0.13415 -0.0067,0.16228 -0.02814,0.0281 -0.04815,-0.0219 -0.04447,-0.11112 z m -3.15015,-0.0988 c -0.105315,-0.13429 -0.10232,-0.13728 0.03197,-0.032 0.141033,0.11061 0.185884,0.18014 0.1162,0.18014 -0.01758,0 -0.08426,-0.0667 -0.148166,-0.14817 z m 31.67613,0.1162 c 0,-0.0176 0.0667,-0.0843 0.14817,-0.14817 0.13428,-0.10531 0.13728,-0.10232 0.032,0.032 -0.1106,0.14103 -0.18013,0.18588 -0.18013,0.1162 z m 0.33867,-0.254 c 0,-0.0176 0.0667,-0.0843 0.14816,-0.14817 0.13429,-0.10531 0.13729,-0.10232 0.032,0.032 -0.11061,0.14103 -0.18013,0.18588 -0.18013,0.1162 z m -28.942633,-0.22203 c 0,-0.11642 0.01922,-0.16405 0.0427,-0.10584 0.02349,0.0582 0.02349,0.15346 0,0.21167 -0.02349,0.0582 -0.0427,0.0106 -0.0427,-0.10583 z m 25.647313,0.0353 c 0.004,-0.0986 0.0241,-0.11869 0.0512,-0.0512 0.0245,0.0611 0.0214,0.13414 -0.007,0.16228 -0.0281,0.0281 -0.0481,-0.0219 -0.0445,-0.11113 z m -29.312147,-0.0988 c -0.105315,-0.13429 -0.10232,-0.13729 0.03197,-0.032 0.08149,0.0639 0.148167,0.13058 0.148167,0.14817 0,0.0697 -0.06953,0.0248 -0.180133,-0.1162 z m 32.946127,0.0315 c 0,-0.0176 0.0667,-0.0843 0.14817,-0.14817 0.13429,-0.10531 0.13728,-0.10232 0.032,0.032 -0.11061,0.14103 -0.18014,0.18588 -0.18014,0.1162 z m -33.284794,-0.28553 c -0.105314,-0.13429 -0.102319,-0.13729 0.03197,-0.032 0.08149,0.0639 0.148166,0.13058 0.148166,0.14817 0,0.0697 -0.06953,0.0248 -0.180133,-0.1162 z m 29.735484,-0.0706 c 0.004,-0.0986 0.0241,-0.11869 0.0511,-0.0512 0.0245,0.0611 0.0215,0.13414 -0.007,0.16227 -0.0281,0.0281 -0.0481,-0.0219 -0.0445,-0.11112 z m 3.88798,0.10209 c 0,-0.0176 0.0667,-0.0843 0.14817,-0.14817 0.13428,-0.10531 0.13728,-0.10232 0.032,0.032 -0.1106,0.14103 -0.18013,0.18588 -0.18013,0.1162 z m -29.711313,-0.18676 c 0.0041,-0.0986 0.02412,-0.11869 0.05115,-0.0511 0.02446,0.0611 0.02145,0.13414 -0.0067,0.16228 -0.02813,0.0281 -0.04814,-0.0219 -0.04447,-0.11113 z m -4.250817,-0.0988 c -0.105315,-0.13429 -0.10232,-0.13729 0.03197,-0.032 0.08149,0.0639 0.148167,0.13058 0.148167,0.14817 0,0.0697 -0.06953,0.0248 -0.180133,-0.1162 z m 34.3008,0.0315 c 0,-0.0176 0.0667,-0.0843 0.14816,-0.14817 0.13429,-0.10531 0.13729,-0.10232 0.032,0.032 -0.11061,0.14103 -0.18013,0.18588 -0.18013,0.1162 z m -34.663394,-0.2983 c -0.115994,-0.12817 -0.122973,-0.17401 -0.03429,-0.22524 0.06124,-0.0354 0.08269,-0.0327 0.04766,0.006 -0.03503,0.0386 -5.46e-4,0.13997 0.07662,0.22524 0.07717,0.0853 0.121257,0.15504 0.09797,0.15504 -0.02328,0 -0.10787,-0.0724 -0.187971,-0.16093 z m 30.521414,0.0269 c 0.004,-0.0986 0.0241,-0.1187 0.0511,-0.0512 0.0245,0.0611 0.0215,0.13415 -0.007,0.16228 -0.0281,0.0281 -0.0481,-0.0219 -0.0445,-0.11112 z m -25.99267,-0.0847 c 0.0041,-0.0986 0.02412,-0.11869 0.05115,-0.0512 0.02446,0.0611 0.02145,0.13414 -0.0067,0.16227 -0.02813,0.0281 -0.04814,-0.0219 -0.04447,-0.11112 z m 30.56648,-0.0103 c 0.0617,-0.10266 0.13032,-0.16843 0.15259,-0.14615 0.0223,0.0223 -0.0282,0.10626 -0.11209,0.18665 -0.14579,0.13964 -0.1476,0.13783 -0.0405,-0.0405 z m -4.48915,-0.32841 c 0.004,-0.0986 0.0241,-0.11869 0.0512,-0.0511 0.0245,0.0611 0.0214,0.13414 -0.007,0.16228 -0.0281,0.0281 -0.0481,-0.0219 -0.0445,-0.11113 z m 4.264,0.002 c -0.15782,-0.12644 -0.15678,-0.12801 0.0262,-0.0394 0.10478,0.0508 0.1905,0.11003 0.1905,0.13167 0,0.0648 -0.0439,0.0461 -0.21665,-0.0923 z m -30.425997,-0.0871 c 0.0041,-0.0986 0.02412,-0.1187 0.05115,-0.0512 0.02446,0.0611 0.02145,0.13415 -0.0067,0.16228 -0.02813,0.0281 -0.04815,-0.0219 -0.04447,-0.11112 z m 26.253347,-0.37395 c 0,-0.11641 0.0192,-0.16404 0.0427,-0.10583 0.0235,0.0582 0.0235,0.15346 0,0.21167 -0.0235,0.0582 -0.0427,0.0106 -0.0427,-0.10584 z m 3.49532,0.0377 c -0.15782,-0.12644 -0.15679,-0.128 0.0262,-0.0394 0.10477,0.0508 0.1905,0.11003 0.1905,0.13167 0,0.0648 -0.0439,0.0461 -0.21665,-0.0923 z m -29.833333,-0.0871 c 0.0041,-0.0986 0.02413,-0.11869 0.05115,-0.0512 0.02446,0.0611 0.02145,0.13414 -0.0067,0.16228 -0.02813,0.0281 -0.04815,-0.0219 -0.04447,-0.11113 z m -3.054684,-0.15632 c 0,-0.0233 0.0762,-0.0831 0.169333,-0.13295 0.09313,-0.0498 0.169333,-0.0716 0.169333,-0.0483 0,0.0233 -0.0762,0.0831 -0.169333,0.13296 -0.09313,0.0498 -0.169333,0.0716 -0.169333,0.0483 z m 2.970017,-0.26701 c 0.0041,-0.0986 0.02412,-0.11869 0.05115,-0.0511 0.02446,0.0611 0.02145,0.13414 -0.0067,0.16227 -0.02813,0.0281 -0.04815,-0.0219 -0.04447,-0.11112 z m 26.50067,0 c 0.004,-0.0986 0.0241,-0.11869 0.0512,-0.0511 0.0245,0.0611 0.0215,0.13414 -0.007,0.16227 -0.0281,0.0281 -0.0481,-0.0219 -0.0445,-0.11112 z m -28.793354,-0.15632 c 0,-0.0233 0.0762,-0.0831 0.169333,-0.13296 0.09313,-0.0498 0.169334,-0.0716 0.169334,-0.0483 0,0.0233 -0.0762,0.0831 -0.169334,0.13296 -0.09313,0.0498 -0.169333,0.0716 -0.169333,0.0483 z m 2.214702,-0.30229 c 0,-0.11642 0.01922,-0.16404 0.0427,-0.10583 0.02349,0.0582 0.02349,0.15345 0,0.21166 -0.02349,0.0582 -0.0427,0.0106 -0.0427,-0.10583 z m 26.663312,0.0353 c 0.004,-0.0986 0.0241,-0.1187 0.0512,-0.0512 0.0244,0.0611 0.0214,0.13415 -0.007,0.16228 -0.0281,0.0281 -0.0481,-0.0219 -0.0445,-0.11112 z m -28.200681,-0.15632 c 0,-0.0233 0.0762,-0.0831 0.169333,-0.13296 0.09313,-0.0498 0.169334,-0.0716 0.169334,-0.0483 0,0.0233 -0.0762,0.0831 -0.169334,0.13296 -0.09313,0.0498 -0.169333,0.0716 -0.169333,0.0483 z m 28.285351,-0.26702 c 0.004,-0.0986 0.0241,-0.11869 0.0512,-0.0512 0.0245,0.0611 0.0214,0.13414 -0.007,0.16228 -0.0281,0.0281 -0.0482,-0.0219 -0.0445,-0.11113 z m -26.839333,-0.0847 c 0.0041,-0.0986 0.02412,-0.1187 0.05115,-0.0512 0.02446,0.0611 0.02145,0.13415 -0.0067,0.16228 -0.02813,0.0281 -0.04814,-0.0219 -0.04447,-0.11112 z m 27.801333,0.002 c -0.15782,-0.12644 -0.15678,-0.128 0.0262,-0.0394 0.10477,0.0508 0.1905,0.11002 0.1905,0.13167 0,0.0648 -0.0439,0.0461 -0.21665,-0.0923 z m -28.570018,-0.074 c 0,-0.0233 0.0762,-0.0831 0.169334,-0.13295 0.09313,-0.0499 0.169333,-0.0716 0.169333,-0.0483 0,0.0233 -0.0762,0.0831 -0.169333,0.13296 -0.09313,0.0498 -0.169334,0.0716 -0.169334,0.0483 z m 27.695818,-0.28112 c -0.0115,-0.22403 0.0658,-0.23964 0.2915,-0.0588 0.15886,0.12727 0.15819,0.1287 -0.02,0.0426 -0.15027,-0.0726 -0.1915,-0.0617 -0.22302,0.0588 -0.029,0.11089 -0.0411,0.10023 -0.0485,-0.0426 z m -27.018484,-2.76784 c 0,-1.58581 0.03181,-2.59699 0.08269,-2.62844 0.10968,-0.0678 6.204721,2.59401 6.120765,2.67303 -0.07121,0.067 -6.055682,2.53275 -6.147146,2.53275 -0.03097,0 -0.05631,-1.1598 -0.05631,-2.57734 z m 0.338666,-3.13766 c 0.109368,-0.11642 0.217901,-0.21167 0.241184,-0.21167 0.02328,0 -0.04715,0.0952 -0.156517,0.21167 -0.109368,0.11642 -0.2179,0.21167 -0.241184,0.21167 -0.02328,0 0.04715,-0.0952 0.156517,-0.21167 z m 26.196288,-0.23283 -0.16129,-0.1905 0.1905,0.16128 c 0.10478,0.0887 0.1905,0.17444 0.1905,0.1905 0,0.0678 -0.0681,0.0177 -0.21971,-0.16128 z m -25.603621,-0.4445 c 0.109368,-0.11642 0.217901,-0.21167 0.241184,-0.21167 0.02328,0 -0.04715,0.0952 -0.156517,0.21167 -0.109368,0.11641 -0.217901,0.21166 -0.241184,0.21166 -0.02328,0 0.04715,-0.0952 0.156517,-0.21166 z m 25.010951,-0.23284 -0.16129,-0.1905 0.1905,0.16129 c 0.10478,0.0887 0.1905,0.17444 0.1905,0.1905 0,0.0678 -0.0681,0.0177 -0.21971,-0.16129 z m -24.418284,-0.4445 c 0.109367,-0.11641 0.2179,-0.21166 0.241184,-0.21166 0.02328,0 -0.04715,0.0952 -0.156518,0.21166 -0.109367,0.11642 -0.2179,0.21167 -0.241183,0.21167 -0.02328,0 0.04715,-0.0952 0.156517,-0.21167 z m 23.825624,-0.23283 -0.16129,-0.1905 0.1905,0.16129 c 0.10477,0.0887 0.1905,0.17443 0.1905,0.1905 0,0.0678 -0.0681,0.0177 -0.21971,-0.16129 z m -23.232958,-0.4445 c 0.109368,-0.11642 0.217901,-0.21167 0.241184,-0.21167 0.02328,0 -0.04715,0.0952 -0.156517,0.21167 -0.109368,0.11642 -0.2179,0.21167 -0.241184,0.21167 -0.02328,0 0.04715,-0.0952 0.156517,-0.21167 z m 22.640288,-0.23283 -0.16129,-0.1905 0.1905,0.16128 c 0.10478,0.0887 0.1905,0.17444 0.1905,0.1905 0,0.0678 -0.0681,0.0177 -0.21971,-0.16128 z m -22.047621,-0.4445 c 0.109368,-0.11642 0.2179,-0.21167 0.241184,-0.21167 0.02328,0 -0.04715,0.0952 -0.156517,0.21167 -0.109368,0.11641 -0.217901,0.21166 -0.241184,0.21166 -0.02328,0 0.04715,-0.0952 0.156517,-0.21166 z m 21.454951,-0.23284 -0.16129,-0.1905 0.1905,0.16129 c 0.10478,0.0887 0.1905,0.17444 0.1905,0.1905 0,0.0678 -0.0681,0.0177 -0.21971,-0.16129 z m -20.862284,-0.4445 c 0.109367,-0.11641 0.2179,-0.21166 0.241183,-0.21166 0.02328,0 -0.04715,0.0953 -0.156517,0.21166 -0.109367,0.11642 -0.2179,0.21167 -0.241184,0.21167 -0.02328,0 0.04715,-0.0953 0.156518,-0.21167 z m 20.269624,-0.23283 -0.16129,-0.1905 0.1905,0.16129 c 0.10477,0.0887 0.1905,0.17443 0.1905,0.1905 0,0.0677 -0.0681,0.0177 -0.21971,-0.16129 z m -19.676958,-0.4445 c 0.109368,-0.11642 0.217901,-0.21167 0.241184,-0.21167 0.02328,0 -0.04715,0.0953 -0.156517,0.21167 -0.109368,0.11642 -0.217901,0.21167 -0.241184,0.21167 -0.02328,0 0.04715,-0.0953 0.156517,-0.21167 z m 19.084288,-0.23283 -0.16129,-0.1905 0.1905,0.16128 c 0.10478,0.0887 0.1905,0.17444 0.1905,0.1905 0,0.0678 -0.0681,0.0177 -0.21971,-0.16128 z m -18.491621,-0.4445 c 0.109368,-0.11642 0.2179,-0.21167 0.241184,-0.21167 0.02328,0 -0.04715,0.0953 -0.156517,0.21167 -0.109368,0.11641 -0.217901,0.21166 -0.241184,0.21166 -0.02328,0 0.04715,-0.0953 0.156517,-0.21166 z m 17.898951,-0.23284 -0.16129,-0.1905 0.1905,0.16129 c 0.10478,0.0887 0.1905,0.17444 0.1905,0.1905 0,0.0678 -0.0681,0.0177 -0.21971,-0.16129 z m -17.475618,-0.25932 c 0,-0.0146 0.123825,-0.1384 0.275167,-0.27517 l 0.275167,-0.24867 -0.248674,0.27516 c -0.231799,0.2565 -0.30166,0.31409 -0.30166,0.24868 z m 16.882958,-0.41801 -0.16129,-0.1905 0.1905,0.16129 c 0.10477,0.0887 0.1905,0.17443 0.1905,0.1905 0,0.0678 -0.0681,0.0177 -0.21971,-0.16129 z m -16.290291,-0.25933 c 0,-0.0146 0.123825,-0.13839 0.275167,-0.27516 l 0.275166,-0.24868 -0.248674,0.27517 c -0.231798,0.25649 -0.301659,0.31408 -0.301659,0.24867 z m 15.697621,-0.418 -0.16129,-0.1905 0.1905,0.16129 c 0.10478,0.0887 0.1905,0.17443 0.1905,0.1905 0,0.0678 -0.0681,0.0177 -0.21971,-0.16129 z M 97.718901,121.5221 c 0.05743,-0.0579 0.12575,-0.0839 0.151818,-0.0578 0.02607,0.0261 -0.02092,0.0734 -0.104422,0.10521 -0.120667,0.0459 -0.130392,0.0362 -0.0474,-0.0474 z"
         id="path6" /><path
         style="fill:#f8b92a"
         d="m 90.901215,175.4193 c -2.507212,-0.67488 -3.700757,-3.08096 -2.648787,-5.33974 0.745887,-1.60155 2.203429,-2.0917 3.091439,-1.0396 0.9918,1.17506 0.681193,2.65745 -0.557021,2.6584 -0.487625,3.8e-4 -0.486798,-0.003 -0.1362,0.51279 1.129872,1.66139 3.235762,0.42831 2.85995,-1.67461 -0.776802,-4.34672 -6.367144,-7.85644 -14.741571,-9.25503 -4.403599,-0.73543 -5.891995,-2.1399 -7.025423,-6.62929 -0.749046,-2.96689 -1.566499,-3.31123 -3.762455,-1.58491 -0.325967,0.25625 -0.697442,0.54571 -0.8255,0.64324 l -0.232834,0.17733 10e-4,-0.7466 c 0.0031,-2.27382 1.289667,-3.49321 3.690435,-3.49763 l 0.347106,-6.4e-4 0.05414,-0.8255 c 0.177172,-2.70152 1.117137,-3.77749 4.225677,-4.83706 3.148373,-1.07316 4.618178,-2.74799 4.634169,-5.2806 0.0021,-0.33104 0.09843,-0.29343 0.569919,0.22245 1.312144,1.43569 1.195968,4.37718 -0.24034,6.08521 -0.186004,0.22119 -0.304314,0.40217 -0.262911,0.40217 0.166836,0 1.171824,1.00559 1.477235,1.47812 0.91043,1.40861 0.876575,3.5368 -0.07464,4.69184 l -0.165498,0.20096 -0.191079,-0.70896 c -0.830533,-3.08152 -3.195504,-4.58486 -4.414674,-2.80627 -0.456308,0.66568 -0.219494,2.81716 0.280626,2.5495 0.804075,-0.43032 1.828891,-0.0809 2.299688,0.78411 l 0.231279,0.42493 -0.506209,-0.0573 c -0.977446,-0.11058 -1.372597,0.1765 -1.372597,0.99721 0,0.58562 -0.04678,0.57792 0.659164,0.1085 2.085831,-1.38699 4.529116,-0.78775 5.808082,1.42447 0.304665,0.52698 0.292619,0.53266 -0.640697,0.30211 -3.338234,-0.82465 -5.604156,0.42829 -4.211572,2.32877 0.498329,0.68008 1.013754,0.93877 2.640362,1.32517 5.35288,1.27159 13.257495,7.27846 14.422312,10.95981 1.154821,3.64975 -1.7534,6.95657 -5.282582,6.00662 z m 25.658245,-0.0744 c -3.18439,-1.03128 -3.91636,-5.0682 -1.47028,-8.10886 3.21482,-3.99625 9.26472,-7.93783 13.63805,-8.88535 1.29327,-0.2802 2.09209,-0.80697 2.46322,-1.62435 0.79677,-1.75483 -1.34113,-2.67225 -4.47752,-1.9214 -0.97082,0.23241 -0.97124,0.23197 -0.48555,-0.4986 1.42682,-2.14625 3.65648,-2.60695 5.73857,-1.18573 0.57611,0.39325 0.53724,0.39636 0.60817,-0.0486 0.12169,-0.76336 -0.34001,-1.17633 -1.24114,-1.11015 -0.61607,0.0452 -0.64691,0.0199 -0.44672,-0.36722 0.42374,-0.81943 1.53323,-1.19301 2.30943,-0.7776 0.56174,0.30064 0.76696,-1.85998 0.24904,-2.62194 -1.15034,-1.69236 -3.47673,-0.2127 -4.33168,2.75508 -0.26497,0.91981 -0.22565,0.88197 -0.50203,0.48316 -1.1929,-1.72136 -0.69637,-4.32369 1.08849,-5.70471 l 0.45008,-0.34825 -0.33582,-0.42484 c -1.44728,-1.83096 -1.46498,-4.9203 -0.0356,-6.21169 l 0.33954,-0.30675 0.18437,0.92512 c 0.52003,2.60942 1.46989,3.58458 4.49641,4.6162 3.14824,1.07311 4.26029,2.3957 4.26029,5.06688 v 0.57273 l 0.70118,0.0539 c 2.30013,0.1768 3.26115,1.11514 3.34451,3.26554 l 0.0375,0.96613 -0.28474,-0.23115 c -2.93725,-2.38439 -3.74659,-2.22043 -4.5194,0.9156 -1.13041,4.58715 -2.59642,5.94675 -7.25874,6.73185 -8.13397,1.36969 -13.66877,4.86013 -14.50692,9.14856 -0.41247,2.11041 1.62186,3.40503 2.80899,1.7876 0.35262,-0.48045 0.36041,-0.58087 0.0414,-0.53405 -1.60868,0.23611 -1.69637,-2.41704 -0.10355,-3.13296 1.44563,-0.64976 3.18729,1.62397 2.83214,3.69734 -0.41362,2.41468 -3.07861,3.87237 -5.59166,3.05852 z"
         id="path5" /><path
         style="display:inline;fill:#1cbadc"
         d="m 96.725479,157.68705 -3.852333,-0.72265 -0.02187,-4.76136 c -0.01203,-2.61875 -0.01113,-4.76136 0.002,-4.76136 0.01313,0 1.508871,0.60423 3.323871,1.34273 l 3.3,1.34273 0.569063,3.92777 c 0.31299,2.16027 0.56064,4.02385 0.55034,4.14127 l -0.0187,0.21351 z m 12.700001,0.64849 c 0,-0.087 1.10828,-7.91768 1.14116,-8.06305 0.0329,-0.1454 4.51369,-2.07215 6.5,-2.79501 0.14,-0.0509 0.14817,0.20812 0.14817,4.69486 v 4.74878 l -0.1905,0.0449 c -0.99731,0.23514 -7.59883,1.4249 -7.59883,1.36951 z m -7.16104,-6.04993 -2.716046,-2.17693 -3.295291,-4.60043 c -1.81241,-2.53023 -3.323621,-4.65049 -3.358247,-4.71168 -0.07075,-0.12502 -1.35635,-6.73928 -1.316943,-6.77552 0.01388,-0.0128 1.417481,-0.59469 3.119118,-1.29318 l 3.093884,-1.26997 3.615105,0.72291 3.6151,0.7229 3.58586,-0.73699 3.58586,-0.737 3.12482,1.28349 c 1.71865,0.70591 3.13896,1.29697 3.15624,1.31345 0.0366,0.035 -1.14789,6.24174 -1.25185,6.55947 -0.0666,0.20368 -6.27214,8.96576 -6.64506,9.38273 -0.24303,0.27175 -5.44165,4.50096 -5.52768,4.49692 -0.0379,-0.002 -1.29105,-0.98286 -2.78487,-2.18017 z m -13.666961,-6.6599 c -2.871822,-1.17129 -4.018678,-1.67649 -4.011216,-1.76696 0.02582,-0.31299 2.695516,-7.08947 2.784228,-7.0672 0.05358,0.0135 1.2836,0.90076 2.733385,1.9718 l 2.635973,1.94733 0.0031,3.28083 c 0.0017,1.80446 -0.02543,3.2794 -0.06035,3.27765 -0.03493,-0.002 -1.87325,-0.74131 -4.085167,-1.64345 z m 28.704721,-1.62514 0.003,-3.28989 2.7233,-2.01786 c 2.31412,-1.71467 2.73221,-1.99455 2.78255,-1.86267 0.0326,0.0854 0.65626,1.71158 1.38595,3.61383 0.72969,1.90225 1.31248,3.47285 1.2951,3.49024 -0.0227,0.0227 -6.99366,2.87966 -8.08652,3.31416 -0.0836,0.0332 -0.10526,-0.64904 -0.10311,-3.24781 z m -30.23037,-7.7575 c -1.16262,-1.66587 -4.291794,-6.37379 -4.246578,-6.38909 0.115354,-0.039 8.289809,-1.12363 8.468614,-1.12363 h 0.184692 l -0.02237,2.64043 -0.02237,2.64043 -2.05593,1.29512 -2.055931,1.29512 z m 33.54724,-1.00677 -2.04959,-1.28577 v -2.64068 -2.64069 l 0.1905,0.0311 c 0.10477,0.0171 2.05553,0.27981 4.33501,0.58382 2.27948,0.30401 4.15166,0.56097 4.1604,0.57102 0.0305,0.0351 -4.44538,6.61987 -4.51574,6.64332 -0.039,0.013 -0.9933,-0.55493 -2.12058,-1.2621 z"
         id="path4" /><path
         style="display:inline;fill:#26b9ce"
         d="m 103.33005,163.97284 c -0.94892,-1.99072 -1.94786,-4.07367 -2.21985,-4.62877 -0.272,-0.55511 -0.47749,-1.05041 -0.45665,-1.10067 0.0208,-0.0503 0.0409,-0.0223 0.0446,0.0621 0.006,0.13771 3.4348,-2.81281 4.17652,-3.59394 0.12805,-0.13486 0.23304,-0.21602 0.23329,-0.18036 7.1e-4,0.1 4.14517,3.78619 4.2948,3.81991 0.0786,0.0177 0.0965,0.052 0.0442,0.0847 -0.0683,0.0427 -3.3978,7.03964 -4.18601,8.79676 -0.0888,0.19791 -0.17136,0.35983 -0.18351,0.35983 -0.0121,0 -0.79848,-1.62877 -1.74741,-3.6195 z m 2.03143,3.33354 c 0,-0.0176 0.0667,-0.0843 0.14817,-0.14817 0.13428,-0.10531 0.13728,-0.10232 0.032,0.032 -0.1106,0.14103 -0.18013,0.18588 -0.18013,0.1162 z m 1.35467,-1.18534 c 0,-0.0176 0.0667,-0.0842 0.14816,-0.14816 0.13429,-0.10532 0.13728,-0.10232 0.032,0.032 -0.11061,0.14104 -0.18013,0.18589 -0.18013,0.1162 z m 0.67733,-0.59266 c 0,-0.0176 0.0667,-0.0843 0.14817,-0.14817 0.13428,-0.10531 0.13728,-0.10232 0.032,0.032 -0.1106,0.14103 -0.18013,0.18588 -0.18013,0.1162 z m 1.35467,-1.18534 c 0,-0.0176 0.0667,-0.0842 0.14816,-0.14816 0.13429,-0.10532 0.13728,-0.10232 0.032,0.032 -0.11061,0.14104 -0.18013,0.18589 -0.18013,0.1162 z m 0.67733,-0.59266 c 0,-0.0176 0.0667,-0.0843 0.14817,-0.14817 0.13428,-0.10531 0.13728,-0.10232 0.032,0.032 -0.1106,0.14103 -0.18013,0.18588 -0.18013,0.1162 z m 0.67733,-0.59267 c 0,-0.0176 0.0667,-0.0843 0.14817,-0.14817 0.13428,-0.10531 0.13728,-0.10232 0.032,0.032 -0.1106,0.14103 -0.18013,0.18588 -0.18013,0.1162 z m 1.35467,-1.18533 c 0,-0.0176 0.0667,-0.0843 0.14816,-0.14817 0.13429,-0.10531 0.13729,-0.10232 0.032,0.032 -0.1106,0.14103 -0.18013,0.18588 -0.18013,0.1162 z m -10.91532,-4.25076 c 0.004,-0.0986 0.0241,-0.11869 0.0512,-0.0512 0.0244,0.0611 0.0214,0.13414 -0.007,0.16228 -0.0281,0.0281 -0.0481,-0.0219 -0.0445,-0.11113 z m -3.747889,-0.008 c 0.06112,-0.0245 0.134143,-0.0214 0.162277,0.007 0.02813,0.0281 -0.02187,0.0481 -0.111125,0.0445 -0.09863,-0.004 -0.118694,-0.0241 -0.05115,-0.0512 z m -2.709334,-0.508 c 0.06112,-0.0245 0.134144,-0.0215 0.162278,0.007 0.02813,0.0281 -0.02187,0.0481 -0.111125,0.0445 -0.09863,-0.004 -0.118694,-0.0241 -0.05115,-0.0512 z m 6.372563,-0.0762 c 0.004,-0.0986 0.0241,-0.1187 0.0512,-0.0512 0.0245,0.0611 0.0215,0.13415 -0.007,0.16228 -0.0281,0.0281 -0.0481,-0.0219 -0.0445,-0.11112 z m 16.59503,-0.14391 c 0.0194,-0.0132 0.11148,-0.0798 0.20461,-0.14816 0.15664,-0.1149 0.16062,-0.1131 0.0531,0.0239 -0.0639,0.0815 -0.15599,0.14817 -0.20461,0.14817 -0.0486,0 -0.0725,-0.0108 -0.0531,-0.024 z m -7.36637,-0.87209 c 0.004,-0.0986 0.0241,-0.1187 0.0512,-0.0512 0.0245,0.0611 0.0215,0.13415 -0.007,0.16228 -0.0281,0.0281 -0.0481,-0.0219 -0.0445,-0.11112 z m -9.990664,-4.40267 c 0.0041,-0.0986 0.02412,-0.1187 0.05115,-0.0511 0.02446,0.0611 0.02145,0.13414 -0.0067,0.16227 -0.02813,0.0281 -0.04814,-0.0219 -0.04447,-0.11112 z m -0.08467,-0.59267 c 0.0041,-0.0986 0.02412,-0.11869 0.05115,-0.0511 0.02446,0.0611 0.02145,0.13414 -0.0067,0.16228 -0.02813,0.0281 -0.04815,-0.0219 -0.04447,-0.11113 z m 10.837334,-0.42333 c 0.004,-0.0986 0.0241,-0.1187 0.0512,-0.0512 0.0245,0.0611 0.0215,0.13414 -0.007,0.16227 -0.0281,0.0281 -0.0481,-0.0219 -0.0445,-0.11112 z m -10.922001,-0.16933 c 0.0041,-0.0986 0.02412,-0.1187 0.05115,-0.0512 0.02446,0.0611 0.02145,0.13415 -0.0067,0.16228 -0.02813,0.0281 -0.04815,-0.0219 -0.04447,-0.11112 z m 10.830651,-0.33536 c 0,-0.01 0.0572,-0.0653 0.127,-0.12326 0.103,-0.0855 0.127,-0.0821 0.127,0.0179 0,0.0678 -0.0572,0.12326 -0.127,0.12326 -0.0699,0 -0.127,-0.008 -0.127,-0.0179 z m 6.83504,-6.19732 c 0.0106,-1.88827 0.0392,-3.45309 0.0635,-3.47736 0.0243,-0.0243 0.0441,1.50302 0.0441,3.39398 0,1.89097 -0.0286,3.45578 -0.0635,3.47737 -0.0349,0.0216 -0.0548,-1.50571 -0.0441,-3.39399 z m -24.445708,0.0204 c 0,-1.85491 0.02079,-3.35177 0.04619,-3.32637 0.05657,0.0566 0.05092,6.60181 -0.0057,6.65848 -0.02224,0.0222 -0.04044,-1.47721 -0.04044,-3.33211 z m 32.734128,-0.17261 c -0.0817,-0.21291 -0.0576,-0.26785 0.0422,-0.0962 0.0494,0.085 0.072,0.17235 0.0502,0.19415 -0.0218,0.0218 -0.0634,-0.0223 -0.0924,-0.0979 z m -2.79902,-7.17588 c 0.0318,-0.0835 0.0791,-0.13049 0.10521,-0.10442 0.0261,0.0261 5e-5,0.0944 -0.0578,0.15182 -0.0836,0.083 -0.0933,0.0733 -0.0474,-0.0474 z m -39.602983,-6.89101 c 0.06112,-0.0245 0.134144,-0.0214 0.162278,0.007 0.02813,0.0281 -0.02187,0.0481 -0.111125,0.0445 -0.09863,-0.004 -0.118694,-0.0241 -0.05115,-0.0512 z m 43.857333,0 c 0.0611,-0.0245 0.13415,-0.0214 0.16228,0.007 0.0281,0.0281 -0.0219,0.0481 -0.11112,0.0445 -0.0986,-0.004 -0.1187,-0.0241 -0.0512,-0.0512 z m -43.264666,-0.0847 c 0.06112,-0.0245 0.134143,-0.0215 0.162278,0.007 0.02813,0.0281 -0.02187,0.0481 -0.111125,0.0445 -0.09863,-0.004 -0.118695,-0.0241 -0.05115,-0.0511 z m 42.672006,0 c 0.0611,-0.0245 0.13414,-0.0215 0.16227,0.007 0.0281,0.0281 -0.0219,0.0481 -0.11112,0.0445 -0.0986,-0.004 -0.1187,-0.0241 -0.0512,-0.0511 z m -41.994673,-0.0847 c 0.06112,-0.0245 0.134144,-0.0214 0.162278,0.007 0.02813,0.0281 -0.02187,0.0481 -0.111125,0.0445 -0.09863,-0.004 -0.118694,-0.0241 -0.05115,-0.0512 z m 41.317333,0 c 0.0611,-0.0245 0.13415,-0.0214 0.16228,0.007 0.0281,0.0281 -0.0219,0.0481 -0.11112,0.0445 -0.0986,-0.004 -0.1187,-0.0241 -0.0512,-0.0512 z m -40.724666,-0.0847 c 0.06112,-0.0245 0.134143,-0.0215 0.162277,0.007 0.02813,0.0281 -0.02187,0.0481 -0.111125,0.0445 -0.09863,-0.004 -0.118694,-0.0241 -0.05115,-0.0512 z m 40.132006,0 c 0.0611,-0.0245 0.13414,-0.0215 0.16227,0.007 0.0281,0.0281 -0.0219,0.0481 -0.11112,0.0445 -0.0986,-0.004 -0.1187,-0.0241 -0.0511,-0.0512 z M 86.210934,129.3502 c 0.06112,-0.0245 0.134143,-0.0214 0.162277,0.007 0.02813,0.0281 -0.02187,0.0481 -0.111125,0.0445 -0.09863,-0.004 -0.118694,-0.0241 -0.05115,-0.0512 z m 37.592006,0 c 0.0611,-0.0245 0.13414,-0.0214 0.16227,0.007 0.0281,0.0281 -0.0219,0.0481 -0.11112,0.0445 -0.0986,-0.004 -0.1187,-0.0241 -0.0511,-0.0512 z m -36.322006,-0.16933 c 0.06112,-0.0245 0.134143,-0.0214 0.162277,0.007 0.02813,0.0281 -0.02187,0.0482 -0.111125,0.0445 -0.09863,-0.004 -0.118694,-0.0241 -0.05115,-0.0512 z m 35.052006,0 c 0.0611,-0.0245 0.13414,-0.0214 0.16227,0.007 0.0281,0.0281 -0.0219,0.0482 -0.11112,0.0445 -0.0986,-0.004 -0.1187,-0.0241 -0.0512,-0.0512 z m -34.45934,-0.0847 c 0.06112,-0.0245 0.134144,-0.0215 0.162278,0.007 0.02813,0.0281 -0.02187,0.0481 -0.111125,0.0445 -0.09863,-0.004 -0.118694,-0.0241 -0.05115,-0.0511 z m 33.86667,0 c 0.0611,-0.0245 0.13414,-0.0215 0.16228,0.007 0.0281,0.0281 -0.0219,0.0481 -0.11113,0.0445 -0.0986,-0.004 -0.11869,-0.0241 -0.0512,-0.0511 z m -33.189336,-0.0847 c 0.06112,-0.0245 0.134143,-0.0214 0.162277,0.007 0.02813,0.0281 -0.02187,0.0481 -0.111125,0.0445 -0.09863,-0.004 -0.118694,-0.0241 -0.05115,-0.0512 z m 32.512006,0 c 0.0611,-0.0245 0.13414,-0.0214 0.16227,0.007 0.0281,0.0281 -0.0219,0.0481 -0.11112,0.0445 -0.0986,-0.004 -0.1187,-0.0241 -0.0511,-0.0512 z m -31.91934,-0.0847 c 0.06112,-0.0245 0.134144,-0.0215 0.162278,0.007 0.02813,0.0281 -0.02187,0.0481 -0.111125,0.0445 -0.09863,-0.004 -0.118694,-0.0241 -0.05115,-0.0511 z m 31.32667,0 c 0.0611,-0.0245 0.13414,-0.0215 0.16228,0.007 0.0281,0.0281 -0.0219,0.0481 -0.11113,0.0445 -0.0986,-0.004 -0.11869,-0.0241 -0.0511,-0.0511 z m -30.649337,-0.0847 c 0.06112,-0.0245 0.134144,-0.0214 0.162278,0.007 0.02813,0.0281 -0.02187,0.0481 -0.111125,0.0445 -0.09863,-0.004 -0.118694,-0.0241 -0.05115,-0.0512 z m 29.972007,0 c 0.0611,-0.0245 0.13414,-0.0214 0.16227,0.007 0.0281,0.0281 -0.0219,0.0481 -0.11112,0.0445 -0.0986,-0.004 -0.1187,-0.0241 -0.0511,-0.0512 z m -29.37934,-0.0847 c 0.06112,-0.0245 0.134144,-0.0215 0.162278,0.007 0.02813,0.0281 -0.02187,0.0481 -0.111125,0.0445 -0.09863,-0.004 -0.118694,-0.0241 -0.05115,-0.0512 z m 0.735542,-0.0268 c -0.167642,-0.072 -0.167599,-0.0728 0.0042,-0.0787 0.09546,-0.003 0.22395,-0.0536 0.285531,-0.11178 0.0924,-0.0873 0.09484,-0.0726 0.01395,0.0847 -0.05391,0.10478 -0.106194,0.18782 -0.116197,0.18455 -0.01,-0.003 -0.09439,-0.0387 -0.187521,-0.0787 z m 28.051128,0.0268 c 0.0611,-0.0245 0.13414,-0.0215 0.16228,0.007 0.0281,0.0281 -0.0219,0.0481 -0.11113,0.0445 -0.0986,-0.004 -0.11869,-0.0241 -0.0511,-0.0512 z m -0.67733,-0.0847 c 0.0611,-0.0245 0.13414,-0.0214 0.16227,0.007 0.0281,0.0281 -0.0219,0.0481 -0.11112,0.0445 -0.0986,-0.004 -0.1187,-0.0241 -0.0512,-0.0512 z m -26.654132,-0.65146 c 0,-0.0176 0.06668,-0.0843 0.148167,-0.14817 0.134286,-0.10531 0.137281,-0.10232 0.03197,0.032 -0.110606,0.14103 -0.180133,0.18588 -0.180133,0.1162 z m 0.592667,-0.67734 c 0,-0.0176 0.06668,-0.0842 0.148167,-0.14816 0.134286,-0.10532 0.13728,-0.10232 0.03197,0.032 -0.110606,0.14104 -0.180133,0.18589 -0.180133,0.1162 z m 0.592667,-0.67733 c 0,-0.0176 0.06667,-0.0843 0.148166,-0.14817 0.134286,-0.10531 0.137281,-0.10232 0.03197,0.032 -0.110606,0.14103 -0.180133,0.18588 -0.180133,0.1162 z m 0.592666,-0.67733 c 0,-0.0176 0.06668,-0.0843 0.148167,-0.14817 0.134286,-0.10531 0.137281,-0.10232 0.03197,0.032 -0.110606,0.14103 -0.180133,0.18588 -0.180133,0.1162 z m 0.592667,-0.67734 c 0,-0.0176 0.06667,-0.0843 0.148167,-0.14816 0.134286,-0.10532 0.13728,-0.10232 0.03197,0.032 -0.110606,0.14104 -0.180133,0.18589 -0.180133,0.1162 z m 0.592667,-0.67733 c 0,-0.0176 0.06668,-0.0843 0.148166,-0.14817 0.134286,-0.10531 0.137281,-0.10232 0.03197,0.032 -0.110606,0.14103 -0.180133,0.18588 -0.180133,0.1162 z m 0.719666,-0.8147 c 0.08428,-0.0931 0.172295,-0.16933 0.195578,-0.16933 0.02328,0 -0.02663,0.0762 -0.110911,0.16933 -0.08428,0.0931 -0.172295,0.16933 -0.195578,0.16933 -0.02328,0 0.02663,-0.0762 0.110911,-0.16933 z m 0.592667,-0.67733 c 0.08428,-0.0931 0.172294,-0.16934 0.195578,-0.16934 0.02328,0 -0.02663,0.0762 -0.110911,0.16934 -0.08429,0.0931 -0.172295,0.16933 -0.195578,0.16933 -0.02328,0 0.02663,-0.0762 0.110911,-0.16933 z m 0.550333,-0.62464 c 0,-0.0176 0.06668,-0.0842 0.148167,-0.14816 0.134286,-0.10532 0.137281,-0.10232 0.03197,0.032 -0.110606,0.14104 -0.180133,0.18589 -0.180133,0.1162 z m 0.592667,-0.67733 c 0,-0.0176 0.06668,-0.0843 0.148167,-0.14817 0.134286,-0.10531 0.13728,-0.10232 0.03197,0.032 -0.110606,0.14103 -0.180133,0.18588 -0.180133,0.1162 z"
         id="path3" /><path
         style="fill:#1a98b5"
         d="m 98.955613,162.2777 c -3.313676,-2.87449 -6.01714,-5.23434 -6.007698,-5.2441 0.03775,-0.039 7.717925,1.42791 7.763185,1.48279 0.0267,0.0324 0.72876,1.4877 1.56004,3.23395 0.83127,1.74625 1.78879,3.75603 2.12782,4.46617 0.33903,0.71014 0.60856,1.29035 0.59896,1.28936 -0.01,-10e-4 -2.72863,-2.35367 -6.042307,-5.22817 z m 6.257367,5.06064 c 0.0702,-0.1859 4.14018,-8.84211 4.17448,-8.87847 0.0301,-0.0319 7.53938,-1.45086 7.67802,-1.45086 0.043,0 -2.52523,2.27229 -5.7071,5.04954 -3.18188,2.77725 -5.87706,5.12992 -5.98929,5.22817 -0.13417,0.11744 -0.18764,0.13513 -0.15611,0.0516 z M 92.765222,156.88201 c -0.01199,-0.0466 -0.02059,-2.20536 -0.0191,-4.79733 0.0021,-3.7244 -0.01977,-4.72171 -0.104469,-4.75582 -0.08557,-0.0344 -0.08531,-0.0445 0.0013,-0.0498 0.186482,-0.0115 0.190019,0.0934 0.166771,4.94631 -0.01249,2.60774 -0.03253,4.70324 -0.04452,4.65667 z m 24.470038,-4.75952 c -0.0215,-5.00316 -2.7e-4,-5.28152 0.37418,-4.90707 0.0228,0.0228 -0.0373,0.0665 -0.13355,0.097 -0.17381,0.0552 -0.17516,0.0882 -0.1976,4.81256 l -0.0226,4.75702 z m -24.997114,-4.93481 c -0.06985,-0.0451 -0.0889,-0.0821 -0.04233,-0.0821 0.04657,0 0.141817,0.0369 0.211667,0.0821 0.06985,0.0451 0.0889,0.0821 0.04233,0.0821 -0.04657,0 -0.141816,-0.0369 -0.211666,-0.0821 z m -0.423334,-0.16934 c -0.06985,-0.0451 -0.0889,-0.0821 -0.04233,-0.0821 0.04657,0 0.141817,0.0369 0.211667,0.0821 0.06985,0.0452 0.0889,0.0821 0.04233,0.0821 -0.04657,0 -0.141817,-0.0369 -0.211667,-0.0821 z m 27.008668,-0.33866 c 0.0699,-0.0451 0.1651,-0.0821 0.21166,-0.0821 0.0466,0 0.0275,0.0369 -0.0423,0.0821 -0.0699,0.0451 -0.1651,0.0821 -0.21167,0.0821 -0.0466,0 -0.0275,-0.0369 0.0423,-0.0821 z m 0.42333,-0.16934 c 0.0699,-0.0451 0.1651,-0.0821 0.21167,-0.0821 0.0466,0 0.0275,0.0369 -0.0423,0.0821 -0.0699,0.0451 -0.1651,0.0821 -0.21166,0.0821 -0.0466,0 -0.0275,-0.0369 0.0423,-0.0821 z m -28.871331,-0.0847 c -0.06985,-0.0451 -0.0889,-0.0821 -0.04233,-0.0821 0.04657,0 0.141816,0.0369 0.211666,0.0821 0.06985,0.0451 0.0889,0.0821 0.04233,0.0821 -0.04657,0 -0.141817,-0.0369 -0.211667,-0.0821 z m 29.294661,-0.0847 c 0.0699,-0.0451 0.1651,-0.0821 0.21167,-0.0821 0.0466,0 0.0275,0.0369 -0.0423,0.0821 -0.0698,0.0451 -0.1651,0.0821 -0.21167,0.0821 -0.0466,0 -0.0275,-0.0369 0.0423,-0.0821 z m -29.717994,-0.0847 c -0.06985,-0.0451 -0.0889,-0.0821 -0.04233,-0.0821 0.04657,0 0.141817,0.0369 0.211667,0.0821 0.06985,0.0452 0.0889,0.0821 0.04233,0.0821 -0.04657,0 -0.141816,-0.0369 -0.211666,-0.0821 z m -0.423333,-0.16933 c -0.06985,-0.0451 -0.0889,-0.0821 -0.04233,-0.0821 0.04657,0 0.141817,0.0369 0.211667,0.0821 0.06985,0.0451 0.0889,0.0821 0.04233,0.0821 -0.04657,0 -0.141816,-0.0369 -0.211666,-0.0821 z m -0.423334,-0.16933 c -0.06985,-0.0451 -0.0889,-0.0821 -0.04233,-0.0821 0.04657,0 0.141817,0.0369 0.211667,0.0821 0.06985,0.0451 0.0889,0.0821 0.04233,0.0821 -0.04657,0 -0.141817,-0.0369 -0.211667,-0.0821 z m 32.004001,-0.16934 c 0.0698,-0.0451 0.1651,-0.0821 0.21166,-0.0821 0.0466,0 0.0275,0.0369 -0.0423,0.0821 -0.0698,0.0451 -0.1651,0.0821 -0.21167,0.0821 -0.0466,0 -0.0275,-0.0369 0.0423,-0.0821 z m 0.42333,-0.16933 c 0.0699,-0.0451 0.1651,-0.0821 0.21167,-0.0821 0.0466,0 0.0275,0.0369 -0.0423,0.0821 -0.0699,0.0451 -0.1651,0.0821 -0.21166,0.0821 -0.0466,0 -0.0275,-0.0369 0.0423,-0.0821 z m -33.866664,-0.254 c -0.06985,-0.0451 -0.0889,-0.0821 -0.04233,-0.0821 0.04657,0 0.141816,0.0369 0.211666,0.0821 0.06985,0.0451 0.0889,0.0821 0.04233,0.0821 -0.04657,0 -0.141817,-0.0369 -0.211667,-0.0821 z m -0.423333,-0.16933 c -0.06985,-0.0451 -0.0889,-0.0821 -0.04233,-0.0821 0.04657,0 0.141817,0.0369 0.211667,0.0821 0.06985,0.0451 0.0889,0.0821 0.04233,0.0821 -0.04657,0 -0.141816,-0.0369 -0.211666,-0.0821 z m -0.423334,-0.16934 c -0.06985,-0.0451 -0.0889,-0.0821 -0.04233,-0.0821 0.04657,0 0.141817,0.0369 0.211667,0.0821 0.06985,0.0451 0.0889,0.0821 0.04233,0.0821 -0.04657,0 -0.141817,-0.0369 -0.211667,-0.0821 z m 36.576001,-0.16933 c 0.0698,-0.0451 0.1651,-0.0821 0.21166,-0.0821 0.0466,0 0.0275,0.0369 -0.0423,0.0821 -0.0698,0.0451 -0.1651,0.0821 -0.21167,0.0821 -0.0466,0 -0.0275,-0.0369 0.0423,-0.0821 z m 0.42333,-0.16933 c 0.0699,-0.0451 0.1651,-0.0821 0.21167,-0.0821 0.0466,0 0.0275,0.0369 -0.0423,0.0821 -0.0699,0.0451 -0.1651,0.0821 -0.21166,0.0821 -0.0466,0 -0.0275,-0.0369 0.0423,-0.0821 z m 0.42333,-0.16934 c 0.0698,-0.0451 0.1651,-0.0821 0.21167,-0.0821 0.0466,0 0.0275,0.0369 -0.0423,0.0821 -0.0699,0.0452 -0.1651,0.0821 -0.21167,0.0821 -0.0466,0 -0.0275,-0.0369 0.0423,-0.0821 z m -38.861994,-0.0847 c -0.06985,-0.0451 -0.0889,-0.0821 -0.04233,-0.0821 0.04657,0 0.141816,0.0369 0.211666,0.0821 0.06985,0.0451 0.0889,0.0821 0.04233,0.0821 -0.04657,0 -0.141817,-0.0369 -0.211667,-0.0821 z m -0.423333,-0.16934 c -0.06985,-0.0451 -0.0889,-0.0821 -0.04233,-0.0821 0.04657,0 0.141817,0.0369 0.211667,0.0821 0.06985,0.0451 0.0889,0.0821 0.04233,0.0821 -0.04657,0 -0.141816,-0.0369 -0.211666,-0.0821 z M 125.27221,144.15 c -0.0895,-0.0567 -0.0826,-0.0832 0.0333,-0.12769 0.0804,-0.0309 0.16616,-0.0362 0.19054,-0.0118 0.0244,0.0244 -0.002,0.0443 -0.0594,0.0443 -0.0571,0 -0.0802,0.0381 -0.0514,0.0847 0.0633,0.10246 0.0361,0.10498 -0.11293,0.0105 z m -40.738731,-0.0925 c 0,-0.0451 0.05715,-0.0601 0.127,-0.0333 0.06985,0.0268 0.127,0.0637 0.127,0.082 0,0.0183 -0.05715,0.0333 -0.127,0.0333 -0.06985,0 -0.127,-0.0369 -0.127,-0.082 z m -0.951394,-3.07126 c -0.491605,-1.59522 -0.882824,-2.91215 -0.869375,-2.92652 0.01345,-0.0144 1.022124,-0.32826 2.2415,-0.69755 1.219377,-0.36929 2.246886,-0.68988 2.283355,-0.71242 0.05529,-0.0342 -2.67094,7.14617 -2.739158,7.21439 -0.01237,0.0124 -0.424716,-1.28269 -0.916322,-2.8779 z m 41.560415,1.8248 c -1.37272,-3.5393 -2.32903,-6.07642 -2.30094,-6.1045 0.0246,-0.0246 3.87691,1.10062 4.41742,1.29034 0.0791,0.0278 -1.57434,5.65969 -1.69787,5.78322 -0.0169,0.0169 -0.20532,-0.41913 -0.41861,-0.96906 z m 2.12909,-10.56725 c -0.0131,-1.28062 0.005,-2.32837 0.0397,-2.32834 0.0349,3e-5 0.0635,1.04781 0.0635,2.32839 0,1.28059 -0.0179,2.32834 -0.0397,2.32834 -0.0218,0 -0.0504,-1.04778 -0.0635,-2.32839 z m -22.35461,0.5753 c 0.18955,-0.0365 0.1905,-0.0447 0.1905,-1.63947 0,-1.09974 0.029,-1.60278 0.0922,-1.60278 0.0507,0 1.62758,0.40005 3.50411,0.889 1.87654,0.48895 3.44476,0.89206 3.48494,0.8958 0.14073,0.0131 -7.12534,1.50935 -7.29295,1.50178 -0.14414,-0.006 -0.14099,-0.0131 0.0212,-0.0443 z m -0.50271,-0.0828 c 0.0611,-0.0245 0.13414,-0.0215 0.16228,0.007 0.0281,0.0281 -0.0219,0.0481 -0.11113,0.0445 -0.0986,-0.004 -0.11869,-0.0241 -0.0511,-0.0511 z m -0.42333,-0.0847 c 0.0611,-0.0245 0.13414,-0.0214 0.16227,0.007 0.0281,0.0281 -0.0219,0.0481 -0.11112,0.0445 -0.0986,-0.004 -0.11869,-0.0241 -0.0512,-0.0512 z m -0.42334,-0.0847 c 0.0611,-0.0245 0.13415,-0.0215 0.16228,0.007 0.0281,0.0281 -0.0219,0.0481 -0.11112,0.0445 -0.0986,-0.004 -0.1187,-0.0241 -0.0512,-0.0511 z m -0.42333,-0.0847 c 0.0611,-0.0245 0.13414,-0.0214 0.16228,0.007 0.0281,0.0281 -0.0219,0.0481 -0.11113,0.0445 -0.0986,-0.004 -0.11869,-0.0241 -0.0511,-0.0512 z m -0.42333,-0.0847 c 0.0611,-0.0245 0.13414,-0.0215 0.16227,0.007 0.0281,0.0281 -0.0219,0.0481 -0.11112,0.0445 -0.0986,-0.004 -0.11869,-0.0241 -0.0512,-0.0512 z m -0.42334,-0.0847 c 0.0611,-0.0245 0.13415,-0.0214 0.16228,0.007 0.0281,0.0281 -0.0219,0.0481 -0.11112,0.0445 -0.0986,-0.004 -0.1187,-0.0241 -0.0512,-0.0512 z m -0.42333,-0.0847 c 0.0611,-0.0245 0.13414,-0.0214 0.16228,0.007 0.0281,0.0281 -0.0219,0.0482 -0.11113,0.0445 -0.0986,-0.004 -0.11869,-0.0241 -0.0512,-0.0512 z m -0.42333,-0.0847 c 0.0611,-0.0245 0.13414,-0.0215 0.16227,0.007 0.0281,0.0281 -0.0219,0.0481 -0.11112,0.0445 -0.0986,-0.004 -0.11869,-0.0241 -0.0511,-0.0511 z m -0.42334,-0.0847 c 0.0611,-0.0245 0.13415,-0.0214 0.16228,0.007 0.0281,0.0281 -0.0219,0.0481 -0.11112,0.0445 -0.0986,-0.004 -0.1187,-0.0241 -0.0512,-0.0512 z m -0.42333,-0.0847 c 0.0611,-0.0245 0.13414,-0.0215 0.16228,0.007 0.0281,0.0281 -0.0219,0.0481 -0.11113,0.0445 -0.0986,-0.004 -0.11869,-0.0241 -0.0512,-0.0511 z m -0.42333,-0.0847 c 0.0611,-0.0245 0.13414,-0.0214 0.16227,0.007 0.0281,0.0281 -0.0219,0.0481 -0.11112,0.0445 -0.0986,-0.004 -0.11869,-0.0241 -0.0511,-0.0512 z m -0.423336,-0.0847 c 0.06112,-0.0245 0.134144,-0.0215 0.162278,0.007 0.02813,0.0281 -0.02187,0.0481 -0.111125,0.0445 -0.09863,-0.004 -0.118695,-0.0241 -0.05115,-0.0512 z m -0.423334,-0.0847 c 0.06112,-0.0245 0.134144,-0.0214 0.162278,0.007 0.02813,0.0281 -0.02187,0.0481 -0.111125,0.0445 -0.09863,-0.004 -0.118694,-0.0241 -0.05115,-0.0512 z m -16.649224,-0.89466 c -0.0078,-0.5006 0.01434,-0.91026 0.04927,-0.91036 0.03493,-1.1e-4 0.05309,0.27612 0.04036,0.61383 -0.04186,1.11084 -0.07517,1.22106 -0.08963,0.29653 z m 16.225891,0.80999 c 0.06112,-0.0245 0.134144,-0.0215 0.162278,0.007 0.02813,0.0281 -0.02187,0.0481 -0.111125,0.0445 -0.09863,-0.004 -0.118694,-0.0241 -0.05115,-0.0512 z m -0.423333,-0.0847 c 0.06112,-0.0245 0.134144,-0.0214 0.162278,0.007 0.02813,0.0281 -0.02187,0.0481 -0.111125,0.0445 -0.09863,-0.004 -0.118695,-0.0241 -0.05115,-0.0512 z m -0.576792,-0.11022 c -0.06985,-0.0444 -1.508103,-0.68202 -3.196117,-1.41687 -2.059831,-0.8967 -3.055966,-1.3712 -3.029123,-1.44287 0.179818,-0.48014 6.309907,-7.23973 6.309907,-6.95788 0,0.0493 0.04399,0.0625 0.09775,0.0293 0.05565,-0.0344 0.07494,-0.0235 0.04479,0.0253 -0.02913,0.0471 1.49851,1.80939 3.394751,3.91613 1.89624,2.10674 3.45733,3.85554 3.46909,3.88622 0.0118,0.0307 -1.28363,0.39521 -2.87866,0.81007 -4.329394,1.12606 -4.184321,1.08404 -3.996165,1.15767 0.108676,0.0425 0.121539,0.0661 0.03778,0.0691 -0.06985,0.003 -0.18415,-0.0317 -0.254,-0.0761 z m -14.689217,-2.21822 c 4.011799,-5.12888 4.830941,-6.14426 4.884622,-6.0548 0.03347,0.0558 0.800325,1.30156 1.704132,2.76841 0.903807,1.46685 1.632749,2.67942 1.619871,2.69461 -0.01288,0.0152 -1.846137,0.27139 -4.07391,0.56935 -2.227774,0.29795 -4.178456,0.56426 -4.33485,0.59178 l -0.284353,0.05 z m 39.733785,0.0145 c -2.31427,-0.31599 -4.24224,-0.58788 -4.28439,-0.60421 -0.0422,-0.0163 0.66231,-1.22984 1.56546,-2.69669 0.90316,-1.46685 1.67041,-2.71428 1.705,-2.77206 0.0406,-0.0678 0.84182,0.89102 2.26129,2.70621 1.20912,1.54619 2.40061,3.06984 2.64774,3.38588 0.24714,0.31605 0.41859,0.5703 0.381,0.56501 -0.0376,-0.005 -1.96183,-0.26815 -4.2761,-0.58414 z m -17.82832,-1.75364 0.0228,-1.92407 3.49278,-2.00431 c 2.32299,-1.33304 3.42607,-1.92505 3.29362,-1.76764 -0.50706,0.60261 -6.76691,7.62009 -6.7974,7.62009 -0.019,0 -0.0243,-0.86583 -0.0118,-1.92407 z m 13.05337,0.80224 -0.16129,-0.1905 0.1905,0.16128 c 0.10478,0.0887 0.1905,0.17444 0.1905,0.1905 0,0.0678 -0.0681,0.0177 -0.21971,-0.16128 z m -0.59266,-0.67734 -0.16129,-0.1905 0.1905,0.16129 c 0.10477,0.0887 0.1905,0.17444 0.1905,0.1905 0,0.0678 -0.0681,0.0177 -0.21971,-0.16129 z m -0.59267,-0.67733 -0.16129,-0.1905 0.1905,0.16129 c 0.10478,0.0887 0.1905,0.17443 0.1905,0.1905 0,0.0677 -0.0681,0.0177 -0.21971,-0.16129 z m -0.59267,-0.67733 -0.16129,-0.1905 0.1905,0.16128 c 0.10478,0.0887 0.1905,0.17444 0.1905,0.1905 0,0.0678 -0.0681,0.0177 -0.21971,-0.16128 z m -0.59266,-0.67734 -0.16129,-0.1905 0.1905,0.16129 c 0.10477,0.0887 0.1905,0.17444 0.1905,0.1905 0,0.0678 -0.0681,0.0177 -0.21971,-0.16129 z m -0.59267,-0.67733 -0.16129,-0.1905 0.1905,0.16129 c 0.10478,0.0887 0.1905,0.17443 0.1905,0.1905 0,0.0678 -0.0681,0.0177 -0.21971,-0.16129 z m -0.59267,-0.67733 -0.16129,-0.1905 0.1905,0.16128 c 0.10478,0.0887 0.1905,0.17444 0.1905,0.1905 0,0.0678 -0.0681,0.0177 -0.21971,-0.16128 z m -0.59266,-0.67734 -0.16129,-0.1905 0.1905,0.16129 c 0.17902,0.15157 0.22904,0.21971 0.16129,0.21971 -0.0161,0 -0.10179,-0.0857 -0.1905,-0.1905 z m -0.59267,-0.67733 -0.16129,-0.1905 0.1905,0.16129 c 0.10478,0.0887 0.1905,0.17443 0.1905,0.1905 0,0.0678 -0.0681,0.0177 -0.21971,-0.16129 z m -0.59267,-0.67733 -0.16129,-0.1905 0.1905,0.16129 c 0.10478,0.0887 0.1905,0.17443 0.1905,0.19049 0,0.0678 -0.0681,0.0177 -0.21971,-0.16128 z m -0.55308,-0.635 c -0.10532,-0.13429 -0.10232,-0.13728 0.032,-0.032 0.14103,0.11061 0.18589,0.18013 0.1162,0.18013 -0.0176,0 -0.0842,-0.0667 -0.14816,-0.14816 z"
         id="path2" /><path
         style="fill:#0c738a"
         d="m 88.670984,150.46836 c -2.218055,-3.45749 -4.019306,-6.3012 -4.002779,-6.31935 0.01653,-0.0181 1.840825,0.70354 4.053995,1.60374 l 4.023946,1.63674 v 4.68276 c 0,2.57552 -0.0095,4.68269 -0.02117,4.68261 -0.01164,-9e-5 -1.835939,-2.82902 -4.053995,-6.2865 z m 28.628496,1.60966 v -4.70521 l 0.61383,-0.25407 c 0.79998,-0.33111 7.07437,-2.88884 7.32851,-2.98744 0.14741,-0.0572 0.18027,-0.0499 0.13394,0.0298 -0.0996,0.17138 -8.01015,12.54825 -8.04471,12.58686 -0.0174,0.0194 -0.0316,-2.08207 -0.0316,-4.66994 z m -34.617528,-17.0978 c 0.0061,-1.69118 0.0347,-3.49782 0.0635,-4.01475 l 0.05236,-0.93987 2.229515,3.29647 c 1.226234,1.81306 2.214552,3.31143 2.196262,3.32972 -0.01829,0.0183 -0.983472,0.32073 -2.144849,0.67208 -1.161377,0.35136 -2.17827,0.65962 -2.259762,0.68503 -0.139378,0.0434 -0.147506,-0.1362 -0.137026,-3.02868 z m 42.406858,2.3639 c -1.23402,-0.37116 -2.25656,-0.68646 -2.27232,-0.70068 -0.0158,-0.0142 0.97484,-1.51543 2.20134,-3.33604 l 2.22998,-3.3102 0.0634,3.24007 c 0.0349,1.78204 0.0539,3.58693 0.0423,4.01087 l -0.021,0.7708 z m -23.70666,-5.23139 c -1.792821,-0.36566 -3.297771,-0.66937 -3.344338,-0.67491 -0.184489,-0.0219 0.64204,-0.25605 3.746838,-1.06122 1.78135,-0.46196 3.22915,-0.86537 3.21733,-0.89647 -0.0118,-0.0311 -1.50621,-1.70539 -3.32084,-3.72066 -1.814641,-2.01527 -3.39448,-3.77719 -3.510756,-3.91537 -0.258413,-0.30711 -0.656341,-0.51915 3.453926,1.84047 1.83287,1.05221 3.36568,1.91311 3.40624,1.91311 0.0406,0 0.084,0.86358 0.0965,1.91906 l 0.0228,1.91906 3.51035,-3.95106 c 1.9307,-2.17308 3.53576,-3.95106 3.5668,-3.95106 0.045,0 2.08808,2.31438 6.02448,6.82463 l 0.23229,0.26616 -3.14338,1.37535 -3.14338,1.37534 -3.45348,-0.89907 c -1.89942,-0.49449 -3.49455,-0.89908 -3.54475,-0.89908 -0.062,0 -0.0913,0.51516 -0.0913,1.60867 v 1.60867 l -0.23283,-0.008 c -0.12806,-0.005 -1.69969,-0.30756 -3.4925,-0.67322 z"
         id="path1" /></g></g></svg>
