<?xml version="1.0" encoding="UTF-8" standalone="no"?>
<svg
   version="1.1"
   width="480.56165pt"
   height="962.25pt"
   id="svg4"
   viewBox="0 0 480.56164 962.25"
   sodipodi:docname="rainbow-dash-cutie-mark.svg"
   inkscape:version="1.3 (0e150ed6c4, 2023-07-21)"
   xmlns:inkscape="http://www.inkscape.org/namespaces/inkscape"
   xmlns:sodipodi="http://sodipodi.sourceforge.net/DTD/sodipodi-0.dtd"
   xmlns="http://www.w3.org/2000/svg"
   xmlns:svg="http://www.w3.org/2000/svg">
  <defs
     id="defs4" />
  <sodipodi:namedview
     id="namedview4"
     pagecolor="#505050"
     bordercolor="#ffffff"
     borderopacity="1"
     inkscape:showpageshadow="0"
     inkscape:pageopacity="0"
     inkscape:pagecheckerboard="1"
     inkscape:deskcolor="#505050"
     inkscape:zoom="0.062126666"
     inkscape:cx="-4136.71"
     inkscape:cy="-201.20185"
     inkscape:window-width="1920"
     inkscape:window-height="995"
     inkscape:window-x="0"
     inkscape:window-y="0"
     inkscape:window-maximized="1"
     inkscape:current-layer="svg4"
     inkscape:document-units="pt" />
  <g
     id="Layer1000"
     transform="matrix(0.46925804,0,0,0.46925804,-180.94294,261.0689)">
    <path
       d="m 389.594,1488.2233 h 0.6202 c 2.7624,-4.443 7.0946,-9.4757 10.2821,-13.4921 24.5033,-30.8721 47.4457,-63.3625 71.0022,-94.6088 24.3851,-32.3459 54.6489,-77.5327 77.6869,-111.9294 49.3727,-73.715 97.9325,-153.0751 142.2252,-236.2037 19.6608,-36.8991 46.2453,-88.2045 62.7713,-126.0513 19.1973,-43.9642 39.0447,-87.7374 55.1809,-134.4657 31.7384,-91.9085 53.7548,-169.5359 63.7004,-266.784 1.4522,-14.1982 1.2611,-31.2268 3.223,-44.7126 4.0669,3.992 61.1351,76.0096 64.6866,80.4447 l 65.6776,81.2287 c 4.1417,-29.6061 9.0391,-59.1301 12.2332,-89.513 6.9103,-65.7289 11.5529,-122.8796 14.0247,-189.2044 0.6032,-16.1897 1.048,-32.5802 1.1866,-48.7958 0.1355,-15.8329 -1.0171,-35.9584 0.1735,-51.1353 18.9385,2.046 30.5439,3.2292 48.3429,-3.1714 81.4286,-29.2819 89.911,-168.4761 71.9835,-238.7121 -1.9065,-7.4695 -3.7732,-13.7367 -6.2957,-20.8567 -1.8757,-5.2946 -7.2006,-15.5812 -8.0028,-19.4755 22.449,-0.5938 41.516,-0.3991 63.6905,-3.431 54.1741,-8.0082 91.5784,-20.6663 131.7578,-53.1814 3.4112,-2.7606 11.7482,-11.1934 14.7325,-12.5937 1.6514,-2.2346 3.4415,-3.5484 5.4102,-5.6744 17.4758,-18.8728 32.4853,-39.8444 42.8267,-63.5828 6.561,-15.0605 9.9076,-32.8697 10.968,-51.0098 v -26.9793 c -0.5065,-9.2089 -1.4981,-18.1876 -2.8491,-26.604 -2.2694,-14.1372 -4.8432,-26.0192 -8.8582,-38.3459 -1.0894,-3.3455 -1.6983,-5.3955 -2.7893,-8.4115 -27.305,-75.4765 -91.6251,-135.4482 -175.263,-145.5645 -10.2277,-1.237 -22.8348,-1.264 -32.787,-2.4375 -5.0241,-0.5924 -6.6846,0.5899 -11.0474,0.72 -22.8195,0.6809 -41.6639,2.5407 -62.5286,8.6774 -6.1654,1.8133 -12.5093,4.3475 -18.3045,5.6977 -1.3096,-4.9051 -7.5832,-10.7813 -10.7385,-14.8638 -2.1098,-2.73 -3.7992,-4.1675 -6.5253,-6.2759 -2.6229,-2.0282 -4.1647,-3.7825 -6.8502,-5.9505 -40.8657,-32.9916 -89.2191,-58.024 -141.8378,-65.3802 -5.0541,-0.7067 -12.8624,-1.4638 -21.1257,-1.9378 H 881.335 c -0.652,0.0646 -1.2804,0.1366 -1.8825,0.2163 -14.7923,1.9565 -29.6989,4.0439 -44.0552,7.9492 -13.0839,3.5589 -26.4711,8.5697 -37.7683,14.2361 -22.2587,11.1649 -43.7655,24.0546 -61.4021,41.8068 l -12.7681,12.8342 c -21.9917,26.2658 -34.2555,55.601 -39.7987,90.6128 -5.1531,32.5494 -1.6701,53.388 2.6348,83.6909 2.0685,14.5605 4.5987,28.3981 9.9587,42.046 1.3504,3.4385 2.3168,6.8108 3.7673,9.834 -19.7079,-4.5916 -54.1888,5.7118 -72.311,11.696 -10.8034,3.5674 -19.9919,8.4583 -30.4356,12.7684 -3.0634,1.2645 -4.3364,1.8269 -7.1422,3.2587 -2.963,1.5123 -4.1658,2.5217 -7.1787,4.0224 -18.3991,9.1641 -35.6406,21.2165 -51.6422,33.9653 -7.8403,6.2464 -15.7365,13.2607 -23.1168,20.0866 -9.7582,9.0249 -21.8415,24.1594 -29.908,34.8976 -57.6757,76.7778 -78.0444,173.5409 -41.2668,265.517 1.1693,2.9248 1.9786,4.5056 3.1014,7.2995 4.157,10.3447 11.8539,27.1508 18.0445,35.56 l 13.587,18.4159 c 8.1621,9.9963 15.7697,20.5271 24.8502,29.5546 14.3972,14.3132 28.2736,28.9451 45.163,40.4444 13.1012,8.9203 25.8693,17.674 41.0967,23.7087 35.6559,14.1307 71.3018,19.7317 109.7991,10.694 29.7947,-6.9948 55.9103,-19.8967 80.6443,-36.9658 6.4516,-4.4524 12.5152,-9.2852 18.4876,-14.3152 11.9247,-10.0432 21.7916,-21.4132 32.4473,-32.3584 2.0421,-2.0976 2.6887,-3.4024 4.7917,-5.6092 2.7436,-2.8788 13.3523,-15.4241 14.2007,-18.602 4.7262,3.4625 17.6443,36.0799 20.7938,44.0118 2.0608,5.1897 4.0184,10.0239 6.1841,15.4176 19.2277,47.8885 44.5779,135.7195 53.4915,185.7294 1.1454,6.4267 2.7379,12.8157 2.7379,19.664 -1.8377,-1.2306 -2.7567,-2.848 -4.1127,-4.688 -1.4718,-1.9967 -2.4999,-3.0761 -3.8968,-4.9042 l -23.7413,-29.8633 c -18.4663,-22.9056 -37.6166,-45.0822 -55.7972,-68.2132 -10.7858,-13.7225 -24.8088,-30.6618 -36.254,-43.7533 -1.7665,-2.0208 -2.1603,-3.8307 -5.0091,-4.5916 1.4553,6.2465 2.2201,15.0191 3.1567,21.6454 3.4339,24.2921 5.5737,69.7312 5.6628,95.1834 0.0187,5.3037 -0.8391,6.9007 -0.8462,11.9552 l -0.7767,24.0256 c -0.7061,13.1031 -0.8492,22.6377 -2.2739,36.1289 l -4.7764,45.6282 c -6.1143,49.8937 -16.1943,99.2463 -28.3102,147.7052 -24.3836,97.5282 -58.0082,189.8144 -95.9525,282.4801 l -18.8744,43.531 c -1.3714,3.21 -2.4891,5.7144 -3.9532,8.8481 -8.0924,17.3197 -15.4078,34.9563 -24.0055,52.0007 l -16.2666,34.1379 c -5.6019,11.2003 -11.2011,22.402 -16.8015,33.6028 l -25.6082,49.5984 c -5.1483,10.3813 -11.3902,23.0263 -17.441,32.9635 -5.8082,9.5388 -20.7786,37.3887 -27.0822,48.9243 -11.8225,21.6345 -24.2085,42.8916 -36.8249,63.9839 -3.2174,5.379 -6.2796,10.055 -9.3008,15.5012 -16.3035,29.3908 -35.7616,56.7003 -52.8128,85.5992 l -14.9837,23.4196 c -2.8565,4.7852 -18.9728,27.0281 -19.9641,31.6307 z"
       style="fill:#0093d0;fill-rule:evenodd"
       id="path1" />
    <path
       d="m 721.9103,-240.0239 c -6.7167,0.7299 -15.0676,0.3121 -22.1534,0.9068 -91.5689,7.6853 -173.9233,59.1761 -221.7849,135.9831 -25.5832,41.0547 -44.6995,88.2005 -40.7684,148.5255 2.7286,41.8756 19.1168,90.2483 44.028,123.5001 3.6433,4.8631 6.8507,9.1451 10.4502,13.5519 25.8477,31.6445 58.2454,65.5367 105.745,84.7102 54.7892,22.1159 108.8393,9.1721 152.2621,-16.9633 54.1449,-32.5888 108.5245,-96.5787 128.4478,-157.2239 4.763,-14.4981 5.6344,-24.9381 7.0716,-41.0987 1.1542,-12.9799 1.7169,-31.3577 4.1476,-43.7137 l 7.8352,40.7455 c 8.1703,41.891 18.2399,73.3893 41.6983,108.7719 13.6252,20.5512 29.2733,36.8725 49.8648,50.1423 18.7279,12.0688 51.4675,24.5305 78.6393,19.2223 48.1861,-9.4138 71.3789,-68.1074 76.8594,-124.0843 4.4425,-45.3745 -1.1608,-106.6961 -26.2525,-145.995 -2.1781,-3.4118 -9.0847,-12.5079 -9.7943,-15.3462 40.5448,2.8675 69.2051,4.5317 110.4908,-3.4206 101.6567,-19.5812 167.6776,-75.0575 155.4262,-199.5149 -9.9742,-101.3235 -77.5757,-173.2206 -165.2131,-191.8108 -17.7338,-3.7618 -36.4183,-5.4059 -55.2636,-4.087 -12.5473,0.8782 -40.1324,5.1596 -49.5967,10.4882 0.2239,1.5018 7.4163,19.8411 9.5227,27.9853 2.742,10.6016 4.805,20.943 5.3929,32.5256 1.1957,23.5673 -2.319,44.4189 -10.9868,63.421 -17.4141,38.1761 -58.7341,49.4589 -99.2925,51.3501 l 11.5957,38.8222 c 10.5769,42.0324 13.1,91.942 -3.7548,131.1979 -51.2986,119.4761 -213.2484,130.0839 -257.4278,58.0589 -15.6158,-25.4582 -14.7577,-53.4895 0.4564,-78.2013 11.1977,-18.1885 38.8945,-38.2763 58.8223,-42.6918 -2.793,4.3773 -13.4515,13.7415 -16.3094,17.1873 l -16.1493,19.0653 c -11.0086,14.1313 -21.687,27.9468 -20.9316,47.7181 0.5256,13.7509 6.2986,25.4112 12.6332,33.5999 30.1663,38.9982 89.9918,34.8205 138.2,12.581 86.8779,-40.0787 105.9449,-136.0374 79.5524,-222.3626 -5.4253,-17.7443 -11.416,-24.7955 -14.1659,-32.9508 23.0292,1.4006 37.0517,3.5402 58.7075,-3.7743 34.7547,-11.7391 52.3023,-41.0899 55.4831,-76.6647 1.6651,-18.6211 0.3492,-42.6583 -6.3128,-58.6981 -13.9549,-33.5985 -36.568,-48.9768 -66.6059,-65.405 -28.8729,-15.7909 -62.7463,-28.5117 -101.6581,-31.0254 -84.7686,-5.4757 -149.229,38.7402 -182.7935,81.0671 -32.9723,41.58 -45.6219,99.9137 -33.2649,155.5668 1.9843,8.9365 4.3716,17.2548 7.4027,25.4617 3.0201,8.1762 7.3211,16.0503 9.745,22.8764 z"
       style="fill:#ffffff;fill-rule:evenodd"
       id="path2" />
    <path
       d="m 1203.9868,-42.6461 c 10.1671,93.2972 14.5809,141.4287 11.0733,237.5799 -6.287,172.3314 -41.9411,371.6322 -90.0074,537.0026 -0.9955,3.4254 -26.456,91.4015 -30.5977,95.0142 C 1077.4638,807.7935 968.0873,633.5461 942.8474,593.7715 l -3.0467,-3.791 c -15.1537,99.773 -42.9086,186.4624 -86.0324,275.523 -74.2898,153.4263 -164.4091,281.9098 -269.2797,409.9833 -8.9878,10.9763 -32.9235,40.373 -41.2611,49.1505 l -31.7188,36.2954 c -3.3092,4.0969 -6.9639,7.6603 -10.6724,11.7116 l -16.0019,17.6028 c -4.5286,5.205 -11.937,13.7486 -16.4517,17.9587 l -21.6335,23.1766 c -3.7238,4.1369 -7.6719,7.7116 -11.3899,11.8071 -7.2972,8.0385 -14.9836,15.2275 -22.5087,23.0942 l -16.5666,17.0393 c -2.3493,2.3979 -4.1964,5.0763 -6.0698,4.9003 h -0.6202 c -1.279,0.5176 -0.0318,-0.3938 -1.2132,0.8742 -0.0139,0.015 -0.9511,1.2529 -0.9865,1.3079 -1.0281,1.6044 -1.3516,2.1464 -1.8006,3.8282 4.8396,-1.2923 95.7719,-76.2429 107.4053,-87.8117 4.9232,-4.896 11.3318,-10.1622 16.7241,-14.4785 2.1575,-1.7266 3.2284,-3.1983 5.482,-4.919 4.1935,-3.2028 33.6155,-30.0325 38.2189,-34.5875 1.8885,-1.8686 3.2392,-3.4358 5.1747,-5.2262 l 15.6175,-14.7849 c 10.6463,-9.3756 20.7416,-22.1834 31.7341,-30.6712 7.7689,-5.9987 13.7256,-14.0017 20.6643,-20.9395 6.7212,-6.7207 14.8195,-13.4856 20.7207,-20.8828 l 34.4684,-37.5378 c 20.88,-21.0688 64.5333,-74.3125 80.6312,-95.3839 11.8985,-15.5747 24.4676,-31.2967 35.6732,-47.5342 l 21.1201,-30.0843 c 17.9376,-27.0845 35.2621,-54.4726 52.0534,-82.3581 2.6068,-4.3294 4.7359,-8.6905 7.4926,-13.3092 12.2644,-20.5492 32.8016,-60.4531 41.955,-82.8559 13.2865,-32.5182 27.1225,-64.1168 35.7848,-98.6269 0.8626,-3.4371 1.4732,-4.7183 2.2556,-8.1454 0.7866,-3.4478 2.7708,-15.2459 3.674,-17.1278 7.8508,5.2574 27.7608,41.1344 33.758,51.0494 11.9688,19.7878 27.601,53.7152 38.2598,75.3497 1.6075,3.2627 2.7754,6.3811 4.5309,9.8706 1.6274,3.2343 3.058,6.5928 4.4878,9.9133 17.1916,39.9251 35.252,79.5353 50.0729,120.3417 l 12.1028,30.301 c 1.1721,2.9282 3.3024,7.4044 4.0003,10.4009 3.0509,-0.8144 2.9299,-2.8576 4.6428,-5.758 l 28.4165,-49.9904 c 12.06,-21.549 23.1678,-43.8438 33.8695,-66.1391 1.3555,-2.8239 2.3383,-4.6457 3.744,-7.4568 2.6765,-5.353 4.9147,-9.4199 7.2717,-15.1305 l 7.134,-15.2677 c 1.4524,-2.8585 2.067,-4.8677 3.4523,-7.7491 18.1125,-37.6733 34.3709,-79.06 48.9602,-118.254 10.2221,-27.4615 19.2703,-55.575 28.6229,-83.3868 l 10.4233,-34.3806 c 3.4075,-11.8431 6.4836,-23.0669 9.9748,-34.829 l 13.6582,-53.5476 c 1.4292,-5.7492 2.8967,-11.6855 4.3324,-18.0694 4.0233,-17.8875 8.5142,-36.2353 11.8568,-54.5491 l 13.487,-76.121 c 0.9887,-5.8711 1.9029,-13.1346 2.9738,-19.4281 4.3874,-25.7825 7.0466,-53.1062 10.1877,-78.62 0.8864,-7.2014 1.0715,-13.6454 1.8814,-20.5203 1.1738,-9.9604 1.2812,-20.2725 2.7997,-30.8033 0.8935,-6.1945 2.6377,-41.407 3.4906,-51.7141 0.292,-3.528 -0.091,-7.5966 0.016,-11.1849 0.3095,-10.359 1.6291,-21.1258 1.6265,-31.9768 0,-7.7749 -0.06,-15.0985 0.6832,-21.7188 1.7674,-15.7428 0.05,-48.4075 0.119,-67.0912 0.029,-7.7763 -0.803,-13.2636 -0.8022,-21.5995 0,-20.1192 -3.3933,-88.3307 -5.9434,-106.0665 l -6.0576,-61.264 c -2.9843,1.4003 -11.3213,9.8331 -14.7325,12.5937 -40.1794,32.5151 -77.5837,45.1732 -131.7578,53.1814 z"
       style="fill:#ef4035;fill-rule:evenodd"
       id="path3" />
    <path
       d="m 390.2142,1488.2233 c 1.8734,0.176 3.7205,-2.5024 6.0698,-4.9003 l 16.5666,-17.0393 c 7.5251,-7.8667 15.2115,-15.0557 22.5087,-23.0942 3.718,-4.0955 7.6661,-7.6702 11.3899,-11.8071 l 21.6335,-23.1766 c 4.5147,-4.2101 11.9231,-12.7537 16.4517,-17.9587 l 16.0019,-17.6028 c 3.7085,-4.0513 7.3632,-7.6147 10.6724,-11.7116 l 31.7188,-36.2954 c 8.3376,-8.7775 32.2733,-38.1742 41.2611,-49.1505 104.8706,-128.0735 194.9899,-256.557 269.2797,-409.9833 43.1238,-89.0606 70.8787,-175.75 86.0324,-275.523 l 3.0467,3.791 c 25.2399,39.7746 134.6164,214.022 151.6076,233.1791 4.1417,-3.6127 29.6022,-91.5888 30.5977,-95.0142 48.0663,-165.3704 83.7204,-364.6712 90.0074,-537.0026 3.5076,-96.1512 -0.9062,-144.2827 -11.0733,-237.5799 -22.1745,3.0319 -41.2415,2.8372 -63.6905,3.431 0.8022,3.8943 6.1271,14.1809 8.0028,19.4755 2.5225,7.12 4.3892,13.3872 6.2957,20.8567 17.9275,70.236 9.4451,209.4302 -71.9835,238.7121 -17.799,6.4006 -29.4044,5.2174 -48.3429,3.1714 -1.1906,15.1769 -0.038,35.3024 -0.1735,51.1353 -0.1386,16.2156 -0.5834,32.6061 -1.1866,48.7958 -2.4718,66.3248 -7.1144,123.4755 -14.0247,189.2044 -3.1941,30.3829 -8.0915,59.9069 -12.2332,89.513 l -65.6776,-81.2287 c -3.5515,-4.4351 -60.6197,-76.4527 -64.6866,-80.4447 -1.9619,13.4858 -1.7708,30.5144 -3.223,44.7126 -9.9456,97.2481 -31.962,174.8755 -63.7004,266.784 -16.1362,46.7283 -35.9836,90.5015 -55.1809,134.4657 -16.526,37.8468 -43.1105,89.1522 -62.7713,126.0513 -44.2927,83.1286 -92.8525,162.4887 -142.2252,236.2037 -23.038,34.3967 -53.3018,79.5835 -77.6869,111.9294 -23.5565,31.2463 -46.4989,63.7367 -71.0022,94.6088 -3.1875,4.0164 -7.5197,9.0491 -10.2821,13.4921 z"
       style="fill:#ffe96b;fill-rule:evenodd"
       id="path4" />
  </g>
</svg>
