<?xml version="1.0" encoding="UTF-8" standalone="no"?>
<!-- Created with Inkscape (http://www.inkscape.org/) -->

<svg
   width="91.803062mm"
   height="135.25555mm"
   viewBox="0 0 91.803062 135.25555"
   version="1.1"
   id="svg1"
   xml:space="preserve"
   inkscape:version="1.3 (0e150ed6c4, 2023-07-21)"
   sodipodi:docname="pindrop.svg"
   xmlns:inkscape="http://www.inkscape.org/namespaces/inkscape"
   xmlns:sodipodi="http://sodipodi.sourceforge.net/DTD/sodipodi-0.dtd"
   xmlns="http://www.w3.org/2000/svg"
   xmlns:svg="http://www.w3.org/2000/svg"><sodipodi:namedview
     id="namedview1"
     pagecolor="#505050"
     bordercolor="#ffffff"
     borderopacity="1"
     inkscape:showpageshadow="0"
     inkscape:pageopacity="0"
     inkscape:pagecheckerboard="1"
     inkscape:deskcolor="#505050"
     inkscape:document-units="mm"
     inkscape:zoom="0.702883"
     inkscape:cx="-141.55983"
     inkscape:cy="69.001527"
     inkscape:window-width="1920"
     inkscape:window-height="995"
     inkscape:window-x="0"
     inkscape:window-y="0"
     inkscape:window-maximized="1"
     inkscape:current-layer="layer1" /><defs
     id="defs1" /><g
     inkscape:label="Layer 1"
     inkscape:groupmode="layer"
     id="layer1"
     transform="translate(-120.87571,-82.851143)"><path
       id="path1"
       style="fill:#ff0000;stroke:#ff0000;stroke-opacity:1"
       d="M 166.7773 89.716874 C 164.35179 89.716874 161.92622 89.828153 160.57148 90.050187 C 154.45539 91.052578 147.74449 93.989347 142.74983 97.849711 C 135.81626 103.20864 130.28829 112.07734 128.54656 120.63695 C 127.25939 126.96271 127.50965 131.77556 129.48139 138.62862 C 133.39564 152.23321 145.24714 174.97864 162.19205 201.40721 C 164.31253 204.71447 166.18075 207.62863 166.34374 207.8833 C 166.50672 208.13796 166.70278 208.34633 166.77937 208.34633 C 166.85597 208.34633 168.69935 205.57812 170.87576 202.19476 C 187.92158 175.69595 200.13938 152.30125 204.07322 138.62862 C 206.04495 131.77556 206.29469 126.96271 205.00753 120.63695 C 203.2658 112.07734 197.73834 103.20864 190.80477 97.849711 C 185.81011 93.989347 179.09921 91.052578 172.98312 90.050187 C 171.62839 89.828153 169.20281 89.716874 166.7773 89.716874 z M 168.24543 106.80162 C 171.61752 106.80932 173.29735 107.10587 176.25011 108.21497 C 178.95298 109.23021 180.31518 110.11139 182.70294 112.38887 C 186.27782 115.79862 188.08627 118.75362 189.23329 123.05851 C 189.71468 124.86513 189.78623 125.55962 189.78623 128.44474 C 189.78623 131.3138 189.71372 132.02854 189.24415 133.78912 C 188.22744 137.60118 186.50311 140.64858 183.76128 143.47845 C 180.31899 147.03124 176.01798 149.26188 171.56306 149.8052 C 169.39086 150.07011 165.16039 150.0597 163.97179 149.78659 C 159.11232 148.67003 154.31607 145.73194 151.35705 142.05838 C 149.60771 139.88659 147.80996 136.30164 147.15473 133.67957 C 146.48383 130.99469 146.47756 125.50914 147.14284 123.10243 C 148.4058 118.53356 150.5841 115.06304 154.14241 111.95118 C 158.3162 108.30105 162.45946 106.78842 168.24543 106.80162 z " /></g></svg>
